<?xml version="1.0" encoding="utf-8"?>
<!-- Generator: Adobe Illustrator 19.2.1, SVG Export Plug-In . SVG Version: 6.00 Build 0)  -->
<svg version="1.1" id="Слой_1" xmlns="http://www.w3.org/2000/svg" xmlns:xlink="http://www.w3.org/1999/xlink" x="0px" y="0px"
	 viewBox="0 0 418.5 418.5" style="enable-background:new 0 0 418.5 418.5;" xml:space="preserve">
<style type="text/css">
	.st0{fill:#324E80;}
</style>
<title>clock</title>
<g>
	<path class="st0" d="M209.3,408.8C99.1,408.8,9.7,319.5,9.7,209.3C9.7,99.1,99,9.7,209.2,9.7c110.2,0,199.6,89.3,199.6,199.5
		c0,0,0,0,0,0C408.7,319.4,319.4,408.7,209.3,408.8z M209.3,31.1c-98.4,0-178.2,79.7-178.2,178.1c0,98.4,79.7,178.2,178.1,178.2
		c98.4,0,178.2-79.7,178.2-178.1c0,0,0,0,0,0C387.3,110.9,307.6,31.2,209.3,31.1z"/>
	<polygon class="st0" points="287.7,219.9 198.6,219.9 198.6,76.7 220,76.7 220,198.6 287.7,198.6 	"/>
</g>
</svg>
