<?xml version="1.0" encoding="utf-8"?>
<!-- Generator: Adobe Illustrator 19.2.1, SVG Export Plug-In . SVG Version: 6.00 Build 0)  -->
<svg version="1.1" id="Слой_1" xmlns="http://www.w3.org/2000/svg" xmlns:xlink="http://www.w3.org/1999/xlink" x="0px" y="0px"
	 viewBox="0 0 68.4 13.1" style="enable-background:new 0 0 68.4 13.1;" xml:space="preserve">
<style type="text/css">
	.st0{fill:#FFFFFF;}
</style>
<title>logo</title>
<path class="st0" d="M7.2,4L6.8,3.7H4.9L4.5,4L4.3,4.4C4.2,4.6,4.2,4.7,4.2,4.9v5.9c0,0.2,0,0.3,0.1,0.5l0.2,0.4L4.9,12h1.9l0.4-0.3
	l0.2-0.4c0.1-0.2,0.1-0.3,0.1-0.5V8.4h-1V11H5.2V4.6h1.3v1.9h1V4.9c0-0.2,0-0.3-0.1-0.5L7.2,4z"/>
<polygon class="st0" points="8.7,4.6 10.2,4.6 10.2,12 11.1,12 11.1,4.6 12.7,4.6 12.7,3.7 8.7,3.7 "/>
<path class="st0" d="M14.4,3.7L13.5,12h0.9l0.2-1.6h1.6l0.2,1.6h0.9l-1-8.3h-2L14.4,3.7z M14.7,9.6l0.6-5h0.3l0.6,5H14.7z"/>
<polygon class="st0" points="21.1,6.3 19.7,6.3 19.7,3.7 18.8,3.7 18.8,12 19.7,12 19.7,7.3 21.1,7.3 21.1,12 22,12 22,3.7 
	21.1,3.7 "/>
<path class="st0" d="M27.1,3.7h-2.8L24,10.5c0,0.2-0.1,0.5-0.3,0.6h-0.5v2H24V12h2.9l0.2,1.1h0.6v-2h-0.6V3.7z M26.2,11.1h-1.5
	c0.1-0.1,0.2-0.3,0.2-0.5l0.3-6h1V11.1z"/>
<path class="st0" d="M29.7,3.7l-1,8.3h0.9l0.2-1.6h1.6l0.3,1.6h0.9l-1-8.3L29.7,3.7L29.7,3.7z M30,9.6l0.6-5h0.3l0.6,5h-1.6H30z"/>
<path class="st0" d="M36.8,4.1l-0.4-0.3H34V12h0.9V9.4h1.3l0.4-0.2L37,8.7c0.1-0.2,0.1-0.4,0.1-0.6V5c0-0.2,0-0.3-0.1-0.5L36.8,4.1z
	 M36.2,8.1c0,0.1,0,0.2-0.1,0.3h-1.2V4.6H36v3.5H36.2z"/>
<polygon class="st0" points="38.2,4.6 39.7,4.6 39.7,12 40.6,12 40.6,4.6 42.2,4.6 42.2,3.7 38.2,3.7 "/>
<rect x="45.3" y="6.4" class="st0" width="2.3" height="0.8"/>
<path class="st0" d="M54.1,4l-0.4-0.3h-1.8L51.5,4l-0.2,0.4c-0.1,0.2-0.1,0.3-0.1,0.5v5.9c0,0.2,0,0.3,0.1,0.5l0.2,0.4l0.4,0.3h1.9
	l0.4-0.3l0.2-0.4c0.1-0.2,0.1-0.3,0.1-0.5V8.4h-1V11h-1.3V4.6h1.2v1.9h0.9V4.9c0-0.2,0-0.3-0.1-0.5L54.1,4z"/>
<polygon class="st0" points="56,12 58.8,12 58.8,11.1 56.9,11.1 56.9,7.3 58.3,7.3 58.3,6.3 56.9,6.3 56.9,4.6 58.8,4.6 58.8,3.7 
	56,3.7 "/>
<path class="st0" d="M63,4.1l-0.4-0.3h-2.3V12h0.9V9.4h1.4L63,9.1l0.3-0.4c0.1-0.2,0.1-0.4,0.1-0.6V5c0-0.2,0-0.3-0.1-0.5L63,4.1z
	 M62.4,8.1c0,0.1,0,0.2-0.1,0.3h-1.1V4.6h1.1v3.5H62.4z"/>
<polygon class="st0" points="64.5,3.7 64.5,4.6 66,4.6 66,12 66.9,12 66.9,4.6 68.4,4.6 68.4,3.7 "/>
<path class="st0" d="M3.6,0.8h3.8V0H2.8L0,2.4V7h0.8V3.2h2.8V0.8z M1.1,2.4L2.8,1v1.4H1.1z"/>
</svg>
