<svg xmlns="http://www.w3.org/2000/svg" viewBox="0 0 68.4 13.1"><title>logo</title><path d="M7.2,4L6.8,3.7H4.9L4.5,4l-0.2.4a1.7,1.7,0,0,0-.1.5v5.9a1.7,1.7,0,0,0,.1.5l0.2,0.4L4.9,12H6.8l0.4-.3,0.2-.4a1.7,1.7,0,0,0,.1-0.5V8.4H6.5v2.6H5.2V4.6H6.5V6.5H7.5V4.9a1.7,1.7,0,0,0-.1-0.5Z"/><polygon points="8.7 4.6 10.2 4.6 10.2 12 11.1 12 11.1 4.6 12.7 4.6 12.7 3.7 8.7 3.7 8.7 4.6"/><path d="M14.4,3.7L13.5,12h0.9l0.2-1.6h1.6L16.4,12h0.9l-1-8.3h-2Zm0.3,5.9,0.6-5h0.3l0.6,5H14.7Z"/><polygon points="21.1 6.3 19.7 6.3 19.7 3.7 18.8 3.7 18.8 12 19.7 12 19.7 7.3 21.1 7.3 21.1 12 22 12 22 3.7 21.1 3.7 21.1 6.3"/><path d="M27.1,3.7H24.3L24,10.5a0.6,0.6,0,0,1-.3.6H23.2v2H24V12h2.9l0.2,1.1h0.6v-2H27.1V3.7Zm-0.9,7.4H24.7a0.9,0.9,0,0,0,.2-0.5l0.3-6h1v6.5Z"/><path d="M29.7,3.7L28.7,12h0.9l0.2-1.6h1.6L31.7,12h0.9l-1-8.3h-2Zm0.3,5.9,0.6-5h0.3l0.6,5H29.9Z"/><path d="M36.8,4.1l-0.4-.3H34V12h0.9V9.4h1.3l0.4-.2L37,8.7a1.5,1.5,0,0,0,.1-0.6V5A1.7,1.7,0,0,0,37,4.5Zm-0.6,4a0.3,0.3,0,0,1-.1.3H34.9V4.6h1.1V8.1Z"/><polygon points="38.2 4.6 39.7 4.6 39.7 12 40.6 12 40.6 4.6 42.2 4.6 42.2 3.7 38.2 3.7 38.2 4.6"/><rect x="45.3" y="6.4" width="2.3" height="0.79"/><path d="M54.1,4l-0.4-.3H51.9L51.5,4l-0.2.4a1.7,1.7,0,0,0-.1.5v5.9a1.7,1.7,0,0,0,.1.5l0.2,0.4L51.9,12h1.9l0.4-.3,0.2-.4a1.7,1.7,0,0,0,.1-0.5V8.4H53.5v2.6H52.2V4.6h1.2V6.5h0.9V4.9a1.7,1.7,0,0,0-.1-0.5Z"/><polygon points="56 12 58.8 12 58.8 11.1 56.9 11.1 56.9 7.3 58.3 7.3 58.3 6.3 56.9 6.3 56.9 4.6 58.8 4.6 58.8 3.7 56 3.7 56 12"/><path d="M63,4.1l-0.4-.3H60.3V12h0.9V9.4h1.4L63,9.1l0.3-.4a1.6,1.6,0,0,0,.1-0.6V5a1.7,1.7,0,0,0-.1-0.5Zm-0.6,4a0.3,0.3,0,0,1-.1.3H61.2V4.6h1.1V8.1Z"/><polygon points="64.5 3.7 64.5 4.6 66 4.6 66 12 66.9 12 66.9 4.6 68.4 4.6 68.4 3.7 64.5 3.7"/><path d="M3.6,0.8H7.4V0H2.8L0,2.4V7H0.8V3.2H3.6V0.8ZM1.1,2.4L2.8,1V2.4H1.1Z"/></svg>