<?xml version="1.0" encoding="utf-8"?>
<!-- Generator: Adobe Illustrator 19.2.1, SVG Export Plug-In . SVG Version: 6.00 Build 0)  -->
<svg version="1.1" id="Слой_1" xmlns="http://www.w3.org/2000/svg" xmlns:xlink="http://www.w3.org/1999/xlink" x="0px" y="0px"
	 viewBox="0 0 267.1 267.1" style="enable-background:new 0 0 267.1 267.1;" xml:space="preserve">
<style type="text/css">
	.st0{fill:#324E80;}
</style>
<title>money</title>
<path class="st0" d="M232.7,71.8V29.3H40.8v14h177.9v28.5H40.8c-7.9,0-14.3-6.4-14.3-14.3s6.4-14.3,14.3-14.3v-14
	c-15.6,0-28.2,12.7-28.3,28.3v169.5c0,15.6,12.7,28.2,28.3,28.3h222.9V71.8H232.7L232.7,71.8z M249.7,183.1H136.2v-39h113.5V183.1z
	 M122.2,130.1v67h127.5v44.3H40.8c-7.9,0-14.2-6.4-14.3-14.3V81.9c4.3,2.5,9.2,3.9,14.3,3.9h208.9v44.3
	C249.7,130.1,122.2,130.1,122.2,130.1z"/>
</svg>
