<svg xmlns="http://www.w3.org/2000/svg" width="92.7" height="70.6" viewBox="0 0 92.7 70.6">
  <title>logo_on_the_pic</title>
  <g>
    <g>
      <path d="M0.6,33.3H4.5a3.3,3.3,0,0,1,2.4.9,2.7,2.7,0,0,1,.7,1.9,2.6,2.6,0,0,1-1.8,2.6l2.1,3H5.7L3.9,39H2.5v2.7H0.6V33.3Zm3.7,4.1a1.2,1.2,0,1,0,0-2.4H2.5v2.4H4.4Z" style="fill: #fff"/>
      <path d="M9.1,39.4V35.3h1.8v3.6A1.1,1.1,0,0,0,12,40.2a1.1,1.1,0,0,0,1.1-1.3V35.3H15v6.4H13.1V40.8a2.3,2.3,0,0,1-1.9,1A2.1,2.1,0,0,1,9.1,39.4Z" style="fill: #fff"/>
      <path d="M16.1,40.8l0.8-1.2a3.6,3.6,0,0,0,2,.8c0.5,0,.8-0.2.8-0.5s-0.6-.5-1.3-0.7-1.9-.7-1.9-2a2.1,2.1,0,0,1,2.4-2,4.5,4.5,0,0,1,2.4.7l-0.7,1.3a3.8,3.8,0,0,0-1.7-.6,0.5,0.5,0,0,0-.7.5c0,0.4.6,0.5,1.3,0.8s1.9,0.7,1.9,1.9-1.1,2.1-2.5,2.1A4.5,4.5,0,0,1,16.1,40.8Z" style="fill: #fff"/>
      <path d="M22,40.8l0.8-1.2a3.6,3.6,0,0,0,2,.8c0.5,0,.8-0.2.8-0.5s-0.6-.5-1.3-0.7-1.9-.7-1.9-2a2.1,2.1,0,0,1,2.4-2,4.5,4.5,0,0,1,2.4.7l-0.7,1.3a3.8,3.8,0,0,0-1.7-.6,0.5,0.5,0,0,0-.7.5c0,0.4.6,0.5,1.3,0.8s1.9,0.7,1.9,1.9-1.1,2.1-2.5,2.1A4.5,4.5,0,0,1,22,40.8Z" style="fill: #fff"/>
      <path d="M28.6,32.9h1.9v1.6H28.6V32.9Zm0,2.3h1.8v6.4H28.6V35.3Z" style="fill: #fff"/>
      <path d="M31.8,39.8c0-1.4,1.1-2.1,2.6-2.1a4.6,4.6,0,0,1,1.6.3h0a1.2,1.2,0,0,0-1.4-1.2,4.7,4.7,0,0,0-1.8.3l-0.5-1.4a5.7,5.7,0,0,1,2.5-.5,3,3,0,0,1,2.2.7,2.8,2.8,0,0,1,.7,2.1v3.7H35.9V41a2.5,2.5,0,0,1-1.9.8A2,2,0,0,1,31.8,39.8Zm4.2-.4V39.1l-1.2-.2a1,1,0,0,0-1.3.9,0.8,0.8,0,0,0,1,.8A1.2,1.2,0,0,0,36,39.4Z" style="fill: #fff"/>
      <path d="M39.3,35.3h1.8v0.9a2.3,2.3,0,0,1,1.9-1,2.1,2.1,0,0,1,2.2,2.4v4.2H43.3V38.1a1.1,1.1,0,0,0-1.1-1.3,1.1,1.1,0,0,0-1.1,1.3v3.6H39.3V35.3Z" style="fill: #fff"/>
      <path d="M0,47.7H2l1.7,5.7,1.9-5.7H7.2l1.9,5.7,1.7-5.7h1.9L9.9,56.2H8.3L6.4,50.7,4.5,56.2H2.9Z" style="fill: #fff"/>
      <path d="M12.8,52.9A3.2,3.2,0,0,1,16,49.5c2.1,0,3.1,1.7,3.1,3.5,0,0.1,0,.3,0,0.5H14.6a1.5,1.5,0,0,0,1.6,1.3,2.1,2.1,0,0,0,1.6-.7l1,0.9a3.2,3.2,0,0,1-2.6,1.2A3.2,3.2,0,0,1,12.8,52.9Zm4.5-.5A1.4,1.4,0,0,0,16,51a1.4,1.4,0,0,0-1.4,1.4h2.7Z" style="fill: #fff"/>
      <path d="M22.3,55.3v0.8H20.5V47.3h1.8v3.3a2.4,2.4,0,0,1,2-1,3,3,0,0,1,2.9,3.3,3,3,0,0,1-2.9,3.3A2.5,2.5,0,0,1,22.3,55.3Zm3.1-2.4a1.6,1.6,0,1,0-1.6,1.8A1.6,1.6,0,0,0,25.4,52.9Z" style="fill: #fff"/>
      <path d="M28.4,51.5h3.7v1.8H28.4V51.5Z" style="fill: #fff"/>
      <path d="M33.7,47.7h2l2.2,3.5,2.2-3.5h2v8.4H40.2V50.6l-2.4,3.6h0l-2.3-3.5v5.4H33.7V47.7Z" style="fill: #fff"/>
      <path d="M43.5,54.2c0-1.4,1.1-2.1,2.6-2.1a4.6,4.6,0,0,1,1.6.3h0a1.2,1.2,0,0,0-1.4-1.2,4.7,4.7,0,0,0-1.8.3l-0.5-1.4a5.7,5.7,0,0,1,2.5-.5,3,3,0,0,1,2.2.7,2.8,2.8,0,0,1,.7,2.1v3.7H47.7V55.4a2.5,2.5,0,0,1-1.9.8A2,2,0,0,1,43.5,54.2Zm4.2-.4V53.5l-1.2-.2a1,1,0,0,0-1.3.9,0.8,0.8,0,0,0,1,.8A1.2,1.2,0,0,0,47.7,53.8Z" style="fill: #fff"/>
      <path d="M51,49.7h1.8V51a2,2,0,0,1,2.1-1.4v1.9H54.8c-1.2,0-2,.7-2,2.3v2.4H51V49.7Z" style="fill: #fff"/>
      <path d="M56,47.3h1.8V52L60,49.7h2.2l-2.4,2.5,2.5,3.9H60.2l-1.7-2.6-0.6.7v2H56V47.3Z" style="fill: #fff"/>
      <path d="M62.5,52.9a3.2,3.2,0,0,1,3.2-3.3c2.1,0,3.1,1.7,3.1,3.5,0,0.1,0,.3,0,0.5H64.3a1.5,1.5,0,0,0,1.6,1.3,2.1,2.1,0,0,0,1.6-.7l1,0.9A3.4,3.4,0,0,1,62.5,52.9Zm4.5-.5A1.4,1.4,0,0,0,65.7,51a1.4,1.4,0,0,0-1.4,1.4h2.7Z" style="fill: #fff"/>
      <path d="M70.5,54.3v-3H69.7V49.7h0.8V48h1.8v1.6h1.5v1.6H72.3V54a0.5,0.5,0,0,0,.6.6l0.9-.2v1.5a2.7,2.7,0,0,1-1.4.4A1.7,1.7,0,0,1,70.5,54.3Z" style="fill: #fff"/>
      <path d="M75.2,47.3h1.9V49H75.2V47.3Zm0,2.3h1.8v6.4H75.3V49.7Z" style="fill: #fff"/>
      <path d="M78.8,49.7h1.8v0.9a2.3,2.3,0,0,1,1.9-1,2.1,2.1,0,0,1,2.2,2.4v4.2H82.9V52.5a1.1,1.1,0,0,0-1.1-1.3,1.1,1.1,0,0,0-1.1,1.3v3.6H78.8V49.7Z" style="fill: #fff"/>
      <path d="M86.3,57.4L86.9,56a4.2,4.2,0,0,0,2.2.6,1.6,1.6,0,0,0,1.8-1.8V54.5a2.5,2.5,0,0,1-2.1,1,3,3,0,0,1,0-6,2.6,2.6,0,0,1,2.1,1V49.7h1.8v5a3.4,3.4,0,0,1-.8,2.5,3.8,3.8,0,0,1-2.8.9A6.1,6.1,0,0,1,86.3,57.4Zm4.6-4.8a1.6,1.6,0,0,0-3.1,0,1.5,1.5,0,0,0,1.6,1.5A1.5,1.5,0,0,0,90.9,52.5Z" style="fill: #fff"/>
      <path d="M0,62.1H2l1.7,5.7,1.9-5.7H7.2l1.9,5.7,1.7-5.7h1.9L9.9,70.6H8.3L6.4,65.1,4.5,70.6H2.9Z" style="fill: #fff"/>
      <path d="M12.8,67.3A3.2,3.2,0,0,1,16,63.9c2.1,0,3.1,1.7,3.1,3.5,0,0.1,0,.3,0,0.5H14.6a1.5,1.5,0,0,0,1.6,1.3,2.1,2.1,0,0,0,1.6-.7l1,0.9a3.2,3.2,0,0,1-2.6,1.2A3.2,3.2,0,0,1,12.8,67.3Zm4.5-.5A1.4,1.4,0,0,0,16,65.4a1.4,1.4,0,0,0-1.4,1.4h2.7Z" style="fill: #fff"/>
      <path d="M20.2,67.3a3.2,3.2,0,0,1,3.2-3.3c2.1,0,3.1,1.7,3.1,3.5,0,0.1,0,.3,0,0.5H22a1.5,1.5,0,0,0,1.6,1.3,2.1,2.1,0,0,0,1.6-.7l1,0.9a3.2,3.2,0,0,1-2.6,1.2A3.2,3.2,0,0,1,20.2,67.3Zm4.5-.5a1.4,1.4,0,0,0-1.4-1.4A1.4,1.4,0,0,0,22,66.8h2.7Z" style="fill: #fff"/>
      <path d="M27.9,61.7h1.8v4.7l2.1-2.3H34l-2.4,2.5,2.5,3.9H32l-1.7-2.6-0.6.7v2H27.9V61.7Z" style="fill: #fff"/>
    </g>
    <rect x="0.4" width="14.2" height="14.17" style="fill: #fe6869"/>
    <rect x="14.6" width="14.2" height="14.17" style="fill: #924992"/>
    <rect x="14.6" y="14.2" width="14.2" height="14.17" style="fill: #665787"/>
    <rect x="28.7" y="14.2" width="14.2" height="14.17" style="fill: #1f6b9e"/>
    <path d="M4.7,3.9H7.6a2.5,2.5,0,0,1,1.8.6A2,2,0,0,1,10,6,2,2,0,0,1,8.7,8l1.5,2.3H8.6l-1.4-2H6.1v2H4.7V3.9ZM7.5,7a0.9,0.9,0,1,0,0-1.8H6.1V7H7.5Z" style="fill: #fff"/>
    <path d="M16.9,3.9h1.5l1.3,4.3,1.4-4.3h1.2l1.4,4.3L25,3.9h1.4l-2.2,6.3H23.1L21.6,6.2l-1.4,4.1H19Z" style="fill: #fff"/>
    <path d="M18.5,18.1H20l1.7,2.7,1.7-2.7h1.5v6.3H23.4V20.3L21.6,23h0l-1.8-2.7v4.1H18.5V18.1Z" style="fill: #fff"/>
    <path d="M33.1,18.1H36a2.5,2.5,0,0,1,1.8.6,2,2,0,0,1,.5,1.5,2,2,0,0,1-1.4,2l1.5,2.3H36.9l-1.4-2H34.5v2H33.1V18.1Zm2.8,3.1a0.9,0.9,0,1,0,0-1.8H34.5v1.8h1.4Z" style="fill: #fff"/>
  </g>
</svg>
