<svg xmlns="http://www.w3.org/2000/svg" width="160" height="37.9" viewBox="0 0 160 37.9">
  <title>logo_on_the_header</title>
  <g>
    <g>
      <path d="M67.9,0.4h3.8a3.3,3.3,0,0,1,2.4.9,2.7,2.7,0,0,1,.7,1.9,2.6,2.6,0,0,1-1.8,2.6l2.1,3H73L71.2,6.1H69.8V8.8H67.9V0.4Zm3.7,4.1a1.2,1.2,0,1,0,0-2.4H69.8V4.4h1.9Z" style="fill: #fff"/>
      <path d="M76.4,6.5V2.3h1.8V5.9a1.1,1.1,0,0,0,1.1,1.3,1.1,1.1,0,0,0,1.1-1.3V2.3h1.8V8.8H80.4V7.8a2.3,2.3,0,0,1-1.9,1A2.1,2.1,0,0,1,76.4,6.5Z" style="fill: #fff"/>
      <path d="M83.4,7.9l0.8-1.2a3.6,3.6,0,0,0,2,.8c0.5,0,.8-0.2.8-0.5s-0.6-.5-1.3-0.7-1.9-.7-1.9-2a2.1,2.1,0,0,1,2.4-2,4.5,4.5,0,0,1,2.4.7L87.8,4.2A3.8,3.8,0,0,0,86,3.6a0.5,0.5,0,0,0-.7.5c0,0.4.6,0.5,1.3,0.8s1.9,0.7,1.9,1.9-1.1,2.1-2.5,2.1A4.5,4.5,0,0,1,83.4,7.9Z" style="fill: #fff"/>
      <path d="M89.3,7.9l0.8-1.2a3.6,3.6,0,0,0,2,.8c0.5,0,.8-0.2.8-0.5s-0.6-.5-1.3-0.7-1.9-.7-1.9-2a2.1,2.1,0,0,1,2.4-2,4.5,4.5,0,0,1,2.4.7L93.7,4.2a3.8,3.8,0,0,0-1.7-.6,0.5,0.5,0,0,0-.7.5c0,0.4.6,0.5,1.3,0.8s1.9,0.7,1.9,1.9S93.4,8.9,92,8.9A4.5,4.5,0,0,1,89.3,7.9Z" style="fill: #fff"/>
      <path d="M95.8,0h1.9V1.6H95.8V0Zm0,2.3h1.8V8.8H95.9V2.3Z" style="fill: #fff"/>
      <path d="M99,6.9c0-1.4,1.1-2.1,2.6-2.1a4.6,4.6,0,0,1,1.6.3h0a1.2,1.2,0,0,0-1.4-1.2,4.7,4.7,0,0,0-1.8.3L99.6,2.8a5.7,5.7,0,0,1,2.5-.5,3,3,0,0,1,2.2.7A2.8,2.8,0,0,1,105,5V8.8h-1.8V8.1a2.5,2.5,0,0,1-1.9.8A2,2,0,0,1,99,6.9Zm4.2-.4V6.2l-1.2-.2a1,1,0,0,0-1.3.9,0.8,0.8,0,0,0,1,.8A1.2,1.2,0,0,0,103.2,6.5Z" style="fill: #fff"/>
      <path d="M106.5,2.3h1.8V3.2a2.3,2.3,0,0,1,1.9-1,2.1,2.1,0,0,1,2.2,2.4V8.8h-1.8V5.2a1.1,1.1,0,0,0-1.1-1.3,1.1,1.1,0,0,0-1.1,1.3V8.8h-1.8V2.3Z" style="fill: #fff"/>
      <path d="M67.3,14.8h2L71,20.4l1.9-5.7h1.6l1.9,5.7,1.7-5.7H80l-2.9,8.5H75.5l-1.9-5.5-1.9,5.5H70.1Z" style="fill: #fff"/>
      <path d="M80.1,20a3.2,3.2,0,0,1,3.2-3.3c2.1,0,3.1,1.7,3.1,3.5,0,0.1,0,.3,0,0.5H81.9a1.5,1.5,0,0,0,1.6,1.3,2.1,2.1,0,0,0,1.6-.7l1,0.9A3.4,3.4,0,0,1,80.1,20Zm4.5-.5a1.4,1.4,0,0,0-1.4-1.4,1.4,1.4,0,0,0-1.4,1.4h2.7Z" style="fill: #fff"/>
      <path d="M89.6,22.3v0.8H87.8V14.4h1.8v3.3a2.4,2.4,0,0,1,2-1A3,3,0,0,1,94.5,20a3,3,0,0,1-2.9,3.3A2.5,2.5,0,0,1,89.6,22.3Zm3.1-2.4a1.6,1.6,0,1,0-3.1,0A1.6,1.6,0,1,0,92.7,19.9Z" style="fill: #fff"/>
      <path d="M95.7,18.6h3.7v1.8H95.7V18.6Z" style="fill: #fff"/>
      <path d="M101,14.8h2l2.2,3.5,2.2-3.5h2v8.4h-1.8V17.7l-2.4,3.6h0l-2.3-3.5v5.4H101V14.8Z" style="fill: #fff"/>
      <path d="M110.8,21.3c0-1.4,1.1-2.1,2.6-2.1a4.6,4.6,0,0,1,1.6.3h0a1.2,1.2,0,0,0-1.4-1.2,4.7,4.7,0,0,0-1.8.3l-0.5-1.4a5.7,5.7,0,0,1,2.5-.5,3,3,0,0,1,2.2.7,2.8,2.8,0,0,1,.7,2.1v3.7h-1.8V22.5a2.5,2.5,0,0,1-1.9.8A2,2,0,0,1,110.8,21.3Zm4.2-.4V20.6l-1.2-.2a1,1,0,0,0-1.3.9,0.8,0.8,0,0,0,1,.8A1.2,1.2,0,0,0,115,20.9Z" style="fill: #fff"/>
      <path d="M118.3,16.7h1.8V18a2,2,0,0,1,2.1-1.4v1.9h-0.1c-1.2,0-2,.7-2,2.3v2.4h-1.8V16.7Z" style="fill: #fff"/>
      <path d="M123.3,14.4h1.8v4.7l2.1-2.3h2.2L127,19.3l2.5,3.9h-2.1l-1.7-2.6-0.6.7v2h-1.8V14.4Z" style="fill: #fff"/>
      <path d="M129.8,20a3.2,3.2,0,0,1,3.2-3.3c2.1,0,3.1,1.7,3.1,3.5,0,0.1,0,.3,0,0.5h-4.5a1.5,1.5,0,0,0,1.6,1.3,2.1,2.1,0,0,0,1.6-.7l1,0.9A3.4,3.4,0,0,1,129.8,20Zm4.5-.5a1.4,1.4,0,0,0-1.4-1.4,1.4,1.4,0,0,0-1.4,1.4h2.7Z" style="fill: #fff"/>
      <path d="M137.8,21.3v-3H137V16.7h0.8V15.1h1.8v1.6h1.5v1.6h-1.5V21a0.5,0.5,0,0,0,.6.6l0.9-.2v1.5a2.7,2.7,0,0,1-1.4.4A1.7,1.7,0,0,1,137.8,21.3Z" style="fill: #fff"/>
      <path d="M142.5,14.4h1.9V16h-1.9V14.4Zm0,2.3h1.8v6.4h-1.8V16.7Z" style="fill: #fff"/>
      <path d="M146.1,16.7h1.8v0.9a2.3,2.3,0,0,1,1.9-1A2.1,2.1,0,0,1,152,19v4.2h-1.8V19.6a1.1,1.1,0,0,0-1.1-1.3,1.1,1.1,0,0,0-1.1,1.3v3.6h-1.8V16.7Z" style="fill: #fff"/>
      <path d="M153.6,24.4l0.6-1.4a4.2,4.2,0,0,0,2.2.6,1.6,1.6,0,0,0,1.8-1.8V21.6a2.5,2.5,0,0,1-2.1,1,2.8,2.8,0,0,1-2.9-3,2.8,2.8,0,0,1,2.9-3,2.6,2.6,0,0,1,2.1,1V16.7H160v5a3.4,3.4,0,0,1-.8,2.5,3.8,3.8,0,0,1-2.8.9A6.1,6.1,0,0,1,153.6,24.4Zm4.6-4.8a1.6,1.6,0,0,0-3.1,0,1.5,1.5,0,0,0,1.6,1.5A1.5,1.5,0,0,0,158.2,19.6Z" style="fill: #fff"/>
      <path d="M67.3,29.2h2L71,34.8l1.9-5.7h1.6l1.9,5.7,1.7-5.7H80l-2.9,8.5H75.5l-1.9-5.5-1.9,5.5H70.1Z" style="fill: #fff"/>
      <path d="M80.1,34.4A3.2,3.2,0,0,1,83.3,31c2.1,0,3.1,1.7,3.1,3.5,0,0.1,0,.3,0,0.5H81.9a1.5,1.5,0,0,0,1.6,1.3,2.1,2.1,0,0,0,1.6-.7l1,0.9A3.4,3.4,0,0,1,80.1,34.4Zm4.5-.5a1.4,1.4,0,0,0-1.4-1.4,1.4,1.4,0,0,0-1.4,1.4h2.7Z" style="fill: #fff"/>
      <path d="M87.5,34.4A3.2,3.2,0,0,1,90.6,31c2.1,0,3.1,1.7,3.1,3.5,0,0.1,0,.3,0,0.5H89.3a1.5,1.5,0,0,0,1.6,1.3,2.1,2.1,0,0,0,1.6-.7l1,0.9A3.4,3.4,0,0,1,87.5,34.4Zm4.5-.5a1.4,1.4,0,0,0-1.4-1.4,1.4,1.4,0,0,0-1.4,1.4H92Z" style="fill: #fff"/>
      <path d="M95.1,28.8h1.8v4.7l2.1-2.3h2.2l-2.4,2.5,2.5,3.9H99.3l-1.7-2.6-0.6.7v2H95.1V28.8Z" style="fill: #fff"/>
    </g>
    <rect y="0.3" width="18.8" height="18.81" style="fill: #fe6869"/>
    <rect x="18.8" y="0.3" width="18.8" height="18.81" style="fill: #924992"/>
    <rect x="18.8" y="19.1" width="18.8" height="18.81" style="fill: #665787"/>
    <rect x="37.6" y="19.1" width="18.8" height="18.81" style="fill: #1f6b9e"/>
    <path d="M5.8,5.6H9.6a3.3,3.3,0,0,1,2.4.8,2.6,2.6,0,0,1,.7,1.9A2.6,2.6,0,0,1,11,11l2,3H10.9L9.1,11.3H7.6v2.7H5.8V5.6ZM9.5,9.6a1.2,1.2,0,1,0,0-2.4H7.6V9.6H9.5Z" style="fill: #fff"/>
    <path d="M21.9,5.6h2l1.7,5.7,1.9-5.7H29l1.9,5.7,1.7-5.7h1.9L31.7,14H30.1L28.2,8.5,26.3,14H24.7Z" style="fill: #fff"/>
    <path d="M24,24.4h2l2.2,3.5,2.2-3.5h2v8.4H30.6V27.3l-2.4,3.6h0l-2.3-3.5v5.4H24V24.4Z" style="fill: #fff"/>
    <path d="M43.4,24.4h3.8a3.3,3.3,0,0,1,2.4.8,2.6,2.6,0,0,1,.7,1.9,2.6,2.6,0,0,1-1.8,2.6l2,3H48.5l-1.8-2.7H45.2v2.7H43.4V24.4Zm3.7,4.1a1.2,1.2,0,1,0,0-2.4H45.2v2.4h1.9Z" style="fill: #fff"/>
  </g>
</svg>
