<?xml version="1.0" encoding="utf-8"?>
<!-- Generator: Adobe Illustrator 19.2.1, SVG Export Plug-In . SVG Version: 6.00 Build 0)  -->
<svg version="1.1" id="Layer_1" xmlns="http://www.w3.org/2000/svg" xmlns:xlink="http://www.w3.org/1999/xlink" x="0px" y="0px"
	 viewBox="0 0 22.1 22.1" style="enable-background:new 0 0 22.1 22.1;" xml:space="preserve">
<style type="text/css">
	.st0{fill:#FFFFFF;}
</style>
<title>twitter</title>
<path class="st0" d="M8.4,16.9c4.6,0,8.4-3.8,8.4-8.4l0,0c0-0.1,0-0.3,0-0.4c0.6-0.4,1.1-0.9,1.5-1.5l-1.7,0.5
	c0.6-0.4,1.1-0.9,1.3-1.6c-0.6,0.3-1.2,0.6-1.9,0.7c-1.2-1.1-3.1-1.1-4.2,0.2C11.1,7,10.8,8,11,8.9C8.6,8.8,6.4,7.6,4.9,5.7
	C4.2,7,4.5,8.7,5.8,9.6c-0.5,0-0.9-0.2-1.3-0.4l0,0c0,1.4,1,2.6,2.4,2.9c-0.4,0.1-0.9,0.2-1.3,0.1c0.4,1.2,1.5,2.1,2.8,2.1
	c-1,0.8-2.4,1.3-3.7,1.3H3.9C5.2,16.5,6.8,16.9,8.4,16.9"/>
</svg>
