<?xml version="1.0" encoding="utf-8"?>
<!-- Generator: Adobe Illustrator 19.2.1, SVG Export Plug-In . SVG Version: 6.00 Build 0)  -->
<svg version="1.1" id="Layer_1" xmlns="http://www.w3.org/2000/svg" xmlns:xlink="http://www.w3.org/1999/xlink" x="0px" y="0px"
	 viewBox="0 0 22.1 22.1" style="enable-background:new 0 0 22.1 22.1;" xml:space="preserve">
<style type="text/css">
	.st0{fill:#FD6869;}
</style>
<title>vk</title>
<path class="st0" d="M10.9,15.5h0.9l0.4-0.2c0.1-0.1,0.1-0.3,0.1-0.4c0,0,0-1.3,0.5-1.4s1.4,1.2,2.1,1.7c0.3,0.3,0.7,0.4,1.1,0.4
	h2.1c0,0,1.1-0.1,0.5-0.9c-0.4-0.7-0.9-1.3-1.5-1.8c-1.4-1.3-1.2-1,0.5-3.2s1.4-2.1,1.3-2.4C18.7,7,18.3,6.9,18,7h-2.6l-0.2,0.3
	c-0.2,0.6-0.5,1.2-0.9,1.8C13.2,11,12.9,11,12.7,11c-0.3-0.5-0.4-1-0.3-1.6c0-1.7,0.3-2.4-0.5-2.6h-1.1c-0.7,0-1.3,0-2,0.2
	C8.5,7.1,8.4,7.4,8.4,7.4c0.3,0,0.5,0.2,0.7,0.4c0.2,0.3,0.3,0.7,0.3,1.1c0,0,0.2,2.1-0.4,2.3S8.3,11,7.3,9.4l-0.7-2L6.4,7.1H3.8
	L3.3,7.3c-0.1,0.1-0.1,0.3,0,0.4c0,0,1.7,3.9,3.7,5.9C8,14.8,9.4,15.4,10.9,15.5L10.9,15.5z"/>
</svg>
