<?xml version="1.0" encoding="utf-8"?>
<!-- Generator: Adobe Illustrator 19.2.1, SVG Export Plug-In . SVG Version: 6.00 Build 0)  -->
<svg version="1.1" id="Layer_1" xmlns="http://www.w3.org/2000/svg" xmlns:xlink="http://www.w3.org/1999/xlink" x="0px" y="0px"
	 viewBox="0 0 500 500" style="enable-background:new 0 0 500 500;" xml:space="preserve">
<style type="text/css">
	.st0{fill:#333333;}
</style>
<path class="st0" d="M177.3,104.6c0,40.2,32.5,72.7,72.7,72.7s72.7-32.5,72.7-72.7S290.2,31.9,250,31.9
	C209.8,31.9,177.3,64.5,177.3,104.6z M177.3,259.1v163.5h-22.7c-12.5,0-22.7,10.2-22.7,22.7c0,12.5,10.2,22.7,22.7,22.7h190.8
	c12.5,0,22.7-10.2,22.7-22.7c0-12.5-10.2-22.7-22.7-22.7h-22.7v-189c0-11.1-8.9-20-20-20H154.6c-12.5,0-22.7,10.2-22.7,22.7
	c0,12.5,10.2,22.7,22.7,22.7L177.3,259.1L177.3,259.1z"/>
</svg>
