<svg xmlns="http://www.w3.org/2000/svg" width="136.9mm" height="134.5mm" viewBox="0 0 388 381.3">
  <title>bg_ring</title>
  <g style="opacity: 0.4">
    <path d="M203.5,381.3H192.4c-14.9-.2-30.8-0.7-46.4-3.6-23.3-4.4-45.6-14.2-66.3-29.3-18.3-13.3-32.4-27.5-43.1-43.6-6.4-9.5-11.3-20-16.1-30.2h0l-1.2-2.5a160.4,160.4,0,0,0-7.4-14.5,72.6,72.6,0,0,1-9-24.7c-1.6-8.9-3.4-19-2.7-29.2,0.2-3.1.6-6.2,1-9.2s0.7-5.4.9-8.1c0.8-9,1.5-18.7,2-28.2a118.6,118.6,0,0,1,14.7-52.2l5.8-10.7c3.8-7.1,7.8-14.5,11.9-21.6A64.1,64.1,0,0,1,60.8,49.5,195.4,195.4,0,0,0,92.1,27.6,82.5,82.5,0,0,1,133.7,8.4C155.1,5,174,2.5,191.6.6s38.7,0.5,61.2,7.6c20,6.3,39.5,15.6,59.5,28.4a59.7,59.7,0,0,1,15,14.3A422.3,422.3,0,0,0,356,84.1c8.4,8.9,13.1,16.6,15.3,25a123.6,123.6,0,0,1,3.3,19c1.2,12.7,4.3,24.9,6.8,34,4.2,15.2,6.2,27,6.5,38.3,0.5,15.1-2,30.2-7.6,46.2-7.5,21.6-15.8,39.7-25.5,55.5a153.9,153.9,0,0,1-36.1,40.8c-6.8,5.4-14.8,9.9-25.8,14.8l-6.6,2.9c-10.2,4.5-20.8,9.2-31.4,13.2-13.4,5.1-28.2,7.6-45.1,7.6h-6.4Zm-11.1-.3h17.5c16.9,0,31.6-2.5,45-7.6,10.6-4,21.2-8.7,31.4-13.2l6.6-2.9c11-4.8,18.9-9.4,25.7-14.7a153.6,153.6,0,0,0,36-40.7c9.6-15.8,18-33.9,25.5-55.4,5.5-15.9,8-31,7.5-46.1-0.3-11.3-2.4-23.1-6.5-38.2-2.5-9.1-5.6-21.2-6.8-34a123.4,123.4,0,0,0-3.3-19c-2.2-8.3-6.9-16-15.2-24.9a422.7,422.7,0,0,1-28.7-33.2,59.4,59.4,0,0,0-15-14.3c-20-12.8-39.5-22.1-59.5-28.3-22.4-7-42.4-9.5-61.1-7.6s-36.5,4.3-57.9,7.7A82.2,82.2,0,0,0,92.2,27.8,195.6,195.6,0,0,1,60.9,49.7a63.9,63.9,0,0,0-24.1,24c-4.1,7.1-8.1,14.5-11.9,21.6L19.1,106A118.4,118.4,0,0,0,4.4,158.1c-0.4,9.6-1.2,19.2-2,28.2-0.2,2.7-.6,5.5-0.9,8.1s-0.8,6.1-1,9.2c-0.7,10.1,1.1,20.2,2.7,29.1a72.3,72.3,0,0,0,9,24.6A160.5,160.5,0,0,1,19.5,272l1.2,2.5h0c4.8,10.2,9.7,20.6,16,30.1,10.7,16,24.8,30.2,43.1,43.5,20.7,15,42.9,24.8,66.2,29.2,15.6,3,31.5,3.4,46.4,3.6h0Z" style="fill: #aa8f52"/>
    <path d="M171.5,336.4a64.9,64.9,0,0,1-32.1-8.6c-10.8-6.1-21.6-12.5-32.1-18.8l-3.6-2.2a40.9,40.9,0,0,1-12-10.9l-4.9-6.6c-8.2-11-16.6-22.5-24.8-33.8s-13.8-26-15.6-41.9a195.8,195.8,0,0,1,6.8-75.8,78.5,78.5,0,0,1,17.8-31.4c8.7-9.5,18.1-19.7,28-29.3,15.9-15.4,35.8-25.2,61-29.9a215.7,215.7,0,0,1,37.7-3.5h0c20.7-.1,36.1,1.9,50.2,6.3a84.9,84.9,0,0,1,28.6,15.4c5.7,4.6,11.9,8.8,17.9,12.9l2.7,1.9a93.8,93.8,0,0,1,24.8,24.4,103.4,103.4,0,0,1,14.4,31.7c2.6,9.4,5.3,19.4,8.8,29.2a93.9,93.9,0,0,1,2.1,56.3c-6.7,25-17,44.7-31.5,60.3-5.8,6.2-12.2,11.9-18.5,17.4l-8.3,7.5-2.6,2.4c-3.4,3.2-7,6.5-10.6,9.6a15.6,15.6,0,0,1-4.9,2.7c-21.8,7.8-40.4,11.9-58.7,13-15,.9-27.4,1.4-39.1,1.7h-1.4ZM197.7,44a215.5,215.5,0,0,0-37.6,3.4c-25.1,4.7-45,14.5-60.8,29.8C89.3,87,80,97.1,71.3,106.6A78.3,78.3,0,0,0,53.5,138a195.5,195.5,0,0,0-6.7,75.7c1.7,15.9,7,29.9,15.5,41.8s16.6,22.7,24.8,33.8l4.9,6.6a40.7,40.7,0,0,0,11.9,10.8l3.6,2.2c10.4,6.2,21.3,12.7,32,18.8a64.6,64.6,0,0,0,33.4,8.6c11.6-.3,24-0.8,39-1.7,18.2-1.1,36.9-5.2,58.6-13a15.3,15.3,0,0,0,4.8-2.7c3.6-3.1,7.2-6.4,10.6-9.6l2.6-2.4,8.4-7.5c6.2-5.5,12.7-11.2,18.4-17.4,14.5-15.5,24.8-35.1,31.4-60.1a93.6,93.6,0,0,0-2.1-56.2c-3.4-9.8-6.2-19.8-8.8-29.2-6.6-24.3-19.4-42.6-39-56l-2.7-1.9c-6-4.1-12.2-8.3-17.9-12.9a84.6,84.6,0,0,0-28.5-15.3c-13.8-4.3-29-6.3-49.1-6.3h-1.1Z" style="fill: #aa8f52"/>
    <path d="M193.2,291.1a87.9,87.9,0,0,1-25.5-3.8c-29.9-9-51-28-62.7-56.5-3.2-7.8-6.2-15.8-9-23.5l-1.6-4.2A26.9,26.9,0,0,1,93,188.7a22.2,22.2,0,0,0,.4-4.5c-0.2-7.4,1-14.8,2.1-22l0.8-5.1c1.1-7.7,4.5-15.3,10.2-23.3,12.1-16.9,25.8-28.9,41.7-36.8,8.5-4.2,18.1-6.7,30.3-7.8l10.1-.7,4.6-.3h0c18-1.3,35.6,4.2,53.8,16.8,9.7,6.7,18.8,14.1,27.1,21.1,6.7,5.6,11.4,13.6,14.6,25s5,24.9,6,35.7a90.4,90.4,0,0,1,0,17.4,93.5,93.5,0,0,1-12.2,37.5,90.5,90.5,0,0,1-22.9,26.4,107.4,107.4,0,0,1-30.8,16.4A108.1,108.1,0,0,1,193.2,291.1Zm5.3-202.7-5.2.2h0l-4.6.3-10.1.7c-12.2,1.1-21.7,3.6-30.2,7.7-15.9,7.9-29.5,19.9-41.6,36.8-5.7,8-9,15.5-10.2,23.2l-0.8,5.1c-1.1,7.1-2.3,14.5-2.1,21.9a22.5,22.5,0,0,1-.4,4.6A26.7,26.7,0,0,0,94.6,203l1.6,4.2c2.9,7.8,5.8,15.8,9,23.5,11.6,28.4,32.7,47.4,62.5,56.3,19.2,5.8,39.2,4.9,61-2.7,24.1-8.4,42.1-22.7,53.6-42.7a93.2,93.2,0,0,0,12.2-37.4,90.3,90.3,0,0,0,0-17.4c-1-10.7-2.5-23.4-6-35.6S280.7,132,274,126.4c-8.3-7-17.3-14.3-27.1-21C230.5,94,214.6,88.4,198.5,88.4Z" style="fill: #aa8f52"/>
    <path d="M198.8,248.2h0l-4.3-.5c-3.8-.4-7.6-0.8-11.5-1.6a25.2,25.2,0,0,1-6.8-2.8l-1.3-.7a12.1,12.1,0,0,1-3.4-2.8c-6.3-7.2-14-13.7-24.1-20.2-5.2-3.3-8.3-8-9.2-13.4a30.6,30.6,0,0,1,.1-9.5,109.8,109.8,0,0,1,3-12.7l0.6-2c1.9-6.8,3.9-13.9,6.2-20.7a56.3,56.3,0,0,1,5.5-11.4,30.2,30.2,0,0,1,19-14l4.4-1.1a107.4,107.4,0,0,1,15.7-3.3c15.1-1.6,28.1,3.7,38.5,15.9a119.2,119.2,0,0,1,18,28.4c4.7,10.4,4.9,19.9.6,29-1.1,2.4-2.6,5.5-4.2,8.5l-2.6,4.9c-1.6,2.9-3.2,5.9-4.6,8.9-5.2,11.6-14.3,18.2-27.9,20.2-2.4.4-4.9,0.5-7.5,0.7l-4,.3h0Zm-1.2-116.9-5.1.3a107.2,107.2,0,0,0-15.6,3.3l-4.4,1.1a30,30,0,0,0-18.9,13.9,56,56,0,0,0-5.4,11.4c-2.3,6.8-4.3,13.9-6.2,20.7l-0.6,2a109.5,109.5,0,0,0-3,12.7,30.3,30.3,0,0,0-.1,9.5c0.9,5.4,4,9.9,9.1,13.2,10.1,6.6,17.8,13,24.2,20.3a11.8,11.8,0,0,0,3.3,2.8l1.3,0.7a25,25,0,0,0,6.7,2.8c3.9,0.8,7.7,1.2,11.5,1.6l4.3,0.5,4-.3c2.6-.2,5.1-0.4,7.5-0.7,13.5-2,22.5-8.6,27.7-20.1,1.4-3.1,3-6.1,4.6-8.9l2.6-4.9c1.6-3,3.1-6.1,4.2-8.5,4.3-9,4.1-18.4-.6-28.8a118.9,118.9,0,0,0-18-28.3C221.6,136.7,210.5,131.4,197.6,131.4Z" style="fill: #aa8f52"/>
    <path d="M193.4,203.9a15.8,15.8,0,0,1-4.6-.7c-3.7-1.1-5.8-3.4-6.9-7.4s-2-9.5,2-14.2,9.3-7.1,14.3-7.1h0.1a11.4,11.4,0,0,1,9,4,11.7,11.7,0,0,1,2,10l-0.2.9a28.8,28.8,0,0,1-1.5,5.3A15.4,15.4,0,0,1,193.4,203.9Zm4.7-29.1c-4.9,0-10.6,2.8-14.1,7s-3.2,9.4-1.9,14,3.2,6.1,6.7,7.2c7.5,2.3,15.6-1.4,18.5-8.3a28.6,28.6,0,0,0,1.5-5.3l0.2-.9a11.5,11.5,0,0,0-1.9-9.8,11.1,11.1,0,0,0-8.8-3.9h-0.1Z" style="fill: #aa8f52"/>
  </g>
</svg>
