<svg xmlns="http://www.w3.org/2000/svg" width="154.3mm" height="52.2mm" viewBox="0 0 437.3 148">
  <title>logo</title>
  <g>
    <g>
      <path d="M217.2,147.8l-12-.5a55.6,55.6,0,0,1-18.5-4.7,68.9,68.9,0,0,1-28.6-22.5,51.1,51.1,0,0,1-5-8.6c-2.2-4.5-4.3-9-6.6-13.5a26.6,26.6,0,0,1-2.8-10.3,123.3,123.3,0,0,1,.4-20.9c0.3-3.2.5-6.5,0.9-9.7a47.9,47.9,0,0,1,4.7-14.8c2.5-5,5.2-9.9,7.9-14.8a20.2,20.2,0,0,1,8.4-8.1,49.5,49.5,0,0,0,11.5-8.1,29.3,29.3,0,0,1,14.7-7.5A181.1,181.1,0,0,1,215,.2a64.3,64.3,0,0,1,19.4,1.5,93.8,93.8,0,0,1,27,10.9,28.8,28.8,0,0,1,7.8,6.8,139.5,139.5,0,0,0,11.7,12.8,22.5,22.5,0,0,1,7,14.2c0.7,5.6,2.2,11,3.7,16.4a60.5,60.5,0,0,1,2.1,19.3,57.7,57.7,0,0,1-3.8,16.9,92.8,92.8,0,0,1-11.6,22.6A48.8,48.8,0,0,1,262.6,136c-1.8,1-3.8,1.9-5.7,2.7l-11.1,4.8a50,50,0,0,1-22.8,4.4h-5.7v-0.2Zm0.2-2.2H224a47.4,47.4,0,0,0,16.9-2.9c4.8-1.8,9.6-4,14.3-6.1a44.2,44.2,0,0,0,9.7-5.5,57.7,57.7,0,0,0,13.6-15.3A106.7,106.7,0,0,0,288,95a48.1,48.1,0,0,0,2.8-17.3,61,61,0,0,0-2.5-14.4,75.1,75.1,0,0,1-2.6-12.8,46.3,46.3,0,0,0-1.2-7.1c-1-3.7-3.2-6.7-5.7-9.4a160.4,160.4,0,0,1-10.8-12.5,22.5,22.5,0,0,0-5.6-5.4A93.4,93.4,0,0,0,240.1,5.4c-7.5-2.3-15.1-3.7-23-2.8s-14.5,1.8-21.8,2.9a31,31,0,0,0-15.6,7.2A73.1,73.1,0,0,1,168,21a24,24,0,0,0-9.1,9.1c-2.3,4-4.4,8.1-6.7,12.1a44.3,44.3,0,0,0-5.5,19.6c-0.2,3.5-.4,7.1-0.7,10.6s-0.6,4.3-.7,6.5a44.1,44.1,0,0,0,1,10.9,27.4,27.4,0,0,0,3.4,9.3c1.2,2.1,2.2,4.3,3.2,6.4a84.5,84.5,0,0,0,6,11.4,65.2,65.2,0,0,0,16.2,16.4,61.4,61.4,0,0,0,24.9,11A101.1,101.1,0,0,0,217.4,145.6Z" style="fill: #aa8f52"/>
      <path d="M217.5,16.3c8.2,0.1,15.2.8,22.1,2.8a32.4,32.4,0,0,1,11,5.9,79.5,79.5,0,0,0,7.6,5.5c4.3,2.6,7.4,6.3,10.3,10.4a31.4,31.4,0,0,1,4.3,8.8c1.7,5.5,3.4,11,5,16.5,2.4,8.5,1.5,16.9-1.4,25.1a55.4,55.4,0,0,1-18.3,25.1,42.6,42.6,0,0,0-4.4,4,18.5,18.5,0,0,1-7.2,4.8c-5.9,2.1-11.9,4.1-18.3,4.8a125.6,125.6,0,0,1-18.4,1.1,32.7,32.7,0,0,1-17.4-5.4c-2.8-1.9-5.8-3.5-8.6-5.4a27,27,0,0,1-7.2-6.6l-10-13.5A34.3,34.3,0,0,1,160,81.4a83.7,83.7,0,0,1,2.3-25.8,35,35,0,0,1,8.6-15.5c3.5-3.6,6.8-7.3,10.4-10.8a44.2,44.2,0,0,1,24.9-12l4.7-.6Zm2,2.5a80.8,80.8,0,0,0-14.1,1.3c-8.7,1.6-16.5,5-22.9,11.2-3.6,3.5-7.1,7.3-10.5,11a29.5,29.5,0,0,0-6.7,11.8,73.3,73.3,0,0,0-2.5,28.5,32.3,32.3,0,0,0,5.8,15.7l11.2,15.2a15.3,15.3,0,0,0,4.5,4.1c4.5,2.7,8.9,5.3,13.4,7.9a24.3,24.3,0,0,0,12.6,3.2l14.7-.6a79.1,79.1,0,0,0,22-4.9,5.8,5.8,0,0,0,1.8-1l5-4.5c3.4-3.1,6.9-6,10.1-9.4,6-6.4,9.6-14.2,11.8-22.6a35.1,35.1,0,0,0-.8-21.1c-1.3-3.6-2.3-7.3-3.3-11a35.8,35.8,0,0,0-14.7-21.1c-2.6-1.8-5.3-3.5-7.8-5.5a32,32,0,0,0-10.7-5.8C232.4,19.3,226.4,18.8,219.4,18.8Z" style="fill: #aa8f52"/>
      <path d="M218.5,33.5c7.3-.7,13.7,1.9,19.6,6,3.1,2.1,6.1,4.4,9.2,6.6,5.6,4,8.7,9.5,9.8,16.2q0.8,4.8,1.5,9.6a29.4,29.4,0,0,1,.2,8c-1.4,10.2-5.7,18.7-13.9,25.1a42,42,0,0,1-26.8,9.4c-6.5,0-12.3-2.2-17.9-5.1-8.9-4.6-14.9-11.8-18.4-21.1l-2.7-7.3c-0.5-1.4-1-2.8-1.4-4.2A8.6,8.6,0,0,1,178,72a80.9,80.9,0,0,0,1.7-10.2c0.5-4.8,2.7-8.9,5.6-12.6a39.9,39.9,0,0,1,17.4-13.4,38.9,38.9,0,0,1,11.2-2.1Zm-0.7,2.1-5.5.4a31.7,31.7,0,0,0-11.4,2.9,42.5,42.5,0,0,0-15.7,13.8,20.1,20.1,0,0,0-3.8,8.7,59,59,0,0,0-1.1,10.2,8.4,8.4,0,0,1-.1,1.7,10,10,0,0,0,.5,5.4c1.3,3.5,2.6,7,4,10.4,4.4,10.8,12.4,17.8,23.5,21.2,7.7,2.3,15.4,1.6,23-1s15.6-8.1,20.2-16.1a35,35,0,0,0,4.6-14.1,34,34,0,0,0,0-6.5,74,74,0,0,0-2.3-13.4c-1-3.6-2.6-6.9-5.5-9.4s-6.6-5.5-10.2-7.9C231.9,37.7,225.3,35,217.8,35.6Z" style="fill: #aa8f52"/>
      <path d="M220,98a34.8,34.8,0,0,1-7.1-1.1,10,10,0,0,1-4.4-2.5L207,92.9a26.3,26.3,0,0,0-5.9-5,12.6,12.6,0,0,1-4.9-4.9,12.4,12.4,0,0,1-.8-9.2c0.9-3.3,2-6.5,2.9-9.8a15.6,15.6,0,0,1,7.8-10.3c5.6-3,11.4-4.6,17.7-3.1a17.8,17.8,0,0,1,9.9,6,60.8,60.8,0,0,1,6.9,10,18.8,18.8,0,0,1,2.2,6.5,9.6,9.6,0,0,1-.8,5.3l-5.1,10.7a13.8,13.8,0,0,1-10.7,8Zm-0.1-2.5,4.3-.4c4.8-.7,8.4-3,10.4-7.6,0.8-1.8,1.8-3.5,2.7-5.2l1.6-3.2c1.7-3.7,1.4-7.3-.2-10.9a44.6,44.6,0,0,0-6.8-10.7,16,16,0,0,0-14.4-5.9,56.3,56.3,0,0,0-7.5,1.7,11.3,11.3,0,0,0-7.1,5.2,21.2,21.2,0,0,0-2.1,4.3c-0.9,2.8-1.7,5.7-2.5,8.5a41.5,41.5,0,0,0-1.1,4.8,11.6,11.6,0,0,0,0,3.6,7.3,7.3,0,0,0,3.5,5,42.6,42.6,0,0,1,9.1,7.6,4.5,4.5,0,0,0,1.3,1,11.9,11.9,0,0,0,3,1.3C215.9,95.2,218,95.3,219.8,95.6Z" style="fill: #aa8f52"/>
      <path d="M211.5,73.8c0-4.2,2.3-6.5,6.1-7.6s8.3,1.6,8.6,6.4a8.4,8.4,0,0,1-5.2,7.9c-2.5.8-4.7,0.7-6.8-1.2A7.1,7.1,0,0,1,211.5,73.8Zm8.1-5.8a7.5,7.5,0,0,0-5.4,2.7c-1.4,1.6-1.3,3.4-.7,5.3a3.6,3.6,0,0,0,2.6,2.7,5.8,5.8,0,0,0,7-3.1,12.8,12.8,0,0,0,.6-2.3A4,4,0,0,0,219.6,68Z" style="fill: #aa8f52"/>
    </g>
    <g>
      <path d="M31,37.4a18.8,18.8,0,0,1,6.3,1,31.2,31.2,0,0,1,5,2.2,21.6,21.6,0,0,1,4.3,3.1,15.1,15.1,0,0,1,1.7-2.3l1.7-1.7,2-1.4h2.5V57.1H50.6a32.9,32.9,0,0,0-3.8-8.5,24,24,0,0,0-5.5-5.9,13.1,13.1,0,0,0-8.3-2.7,11.6,11.6,0,0,0-5.8,1.6A14.1,14.1,0,0,0,22,47a35.8,35.8,0,0,0-3.5,10.3,80.8,80.8,0,0,0-1.3,16,77.6,77.6,0,0,0,1.4,16,31.8,31.8,0,0,0,3.8,10.3,14.4,14.4,0,0,0,5.8,5.5,16.2,16.2,0,0,0,7.2,1.6,15.6,15.6,0,0,0,6.8-1.5,19.9,19.9,0,0,0,5.8-4.1A20.7,20.7,0,0,0,52,95.1,16.8,16.8,0,0,0,53.5,88h2.5A19.5,19.5,0,0,1,54.2,96a21.1,21.1,0,0,1-4.8,6.7,23.2,23.2,0,0,1-16.1,6.3,38.8,38.8,0,0,1-13.9-2.4A27.9,27.9,0,0,1,8.9,99.8,30.7,30.7,0,0,1,2.3,88.6,46.8,46.8,0,0,1,0,73.3,47.7,47.7,0,0,1,2.3,58,31.6,31.6,0,0,1,8.6,46.7a26.9,26.9,0,0,1,9.8-6.9A32.5,32.5,0,0,1,31,37.4Z"/>
      <path d="M125.6,73.3a46.8,46.8,0,0,1-2.3,15.3,31.8,31.8,0,0,1-6.5,11.2,27,27,0,0,1-10.1,6.9,37.3,37.3,0,0,1-26.1,0,27,27,0,0,1-10.1-6.9,31.8,31.8,0,0,1-6.5-11.2,46.8,46.8,0,0,1-2.3-15.3A46.8,46.8,0,0,1,64.1,58a31.8,31.8,0,0,1,6.5-11.2,27,27,0,0,1,10.1-6.9,37.3,37.3,0,0,1,26.1,0,27,27,0,0,1,10.1,6.9A31.8,31.8,0,0,1,123.3,58,46.8,46.8,0,0,1,125.6,73.3Zm-17.2,0A83.6,83.6,0,0,0,107.1,57a38.6,38.6,0,0,0-3.4-10.4A14.2,14.2,0,0,0,98.9,41a9.2,9.2,0,0,0-10.4,0,14.1,14.1,0,0,0-4.8,5.6A38.6,38.6,0,0,0,80.3,57,83.6,83.6,0,0,0,79,73.3a83.6,83.6,0,0,0,1.3,16.2A38.5,38.5,0,0,0,83.8,100a14.1,14.1,0,0,0,4.8,5.6,9.2,9.2,0,0,0,10.4,0,14.2,14.2,0,0,0,4.8-5.6,38.5,38.5,0,0,0,3.4-10.4A83.6,83.6,0,0,0,108.5,73.3Z"/>
      <path d="M221.8,38.9v1.5l-5.9,1.5v62.8l5.9,1.5v1.5h-28v-1.5l5.9-1.5V51.2l-23.1,57.4h-2.9L143.8,51.2v52l7.9,2.9v1.5H133v-1.5l7.9-2.9V41.9L134,40.4V38.9h13.3a16.4,16.4,0,0,1,4.8.6,13.3,13.3,0,0,1,3.6,1.7,11.3,11.3,0,0,1,2.7,2.6,26.1,26.1,0,0,1,2.1,3.4l21.4,40.9,16.4-40.9a17.5,17.5,0,0,1,1.8-3.6,10.6,10.6,0,0,1,2.5-2.6,10.3,10.3,0,0,1,3.6-1.6,22.2,22.2,0,0,1,5.3-.5h10.3Z"/>
      <path d="M231.7,40.4V38.9h28v1.5l-5.9,1.5V91.4l23.1-42.2V41.9l-5.9-1.5V38.9h28v1.5L293,41.9v62.8l5.9,1.5v1.5h-28v-1.5l5.9-1.5V55.1L253.7,97.3v7.4l5.9,1.5v1.5h-28v-1.5l5.9-1.5V41.9Z"/>
      <path d="M312.6,109.1a9.9,9.9,0,0,1-7.1-2.5,8.9,8.9,0,0,1-.4-12.3,7.5,7.5,0,0,1,5.6-2.3h1.4l1.2,0.2,1.3,0.2v13.7a7.8,7.8,0,0,0,2.6-1.5,10,10,0,0,0,2.5-3.6,31.8,31.8,0,0,0,2.1-6.9,72.5,72.5,0,0,0,1.2-11.1l2-40.7-6.9-2V38.9h50.5v1.5l-5.9,1.5v62.8l5.9,1.5v1.5h-28v-1.5l5.9-1.5V41.4H327.8l-2,41.7a69.1,69.1,0,0,1-1.6,12.6,30.2,30.2,0,0,1-3,8,10.9,10.9,0,0,1-4,4.2A9.5,9.5,0,0,1,312.6,109.1Z"/>
      <path d="M406.9,66.4a61.2,61.2,0,0,1,14.3,1.4,26.2,26.2,0,0,1,9.4,4.1,15.1,15.1,0,0,1,5.2,6.5,24.6,24.6,0,0,1,0,17.3,15.2,15.2,0,0,1-5.2,6.5,26.2,26.2,0,0,1-9.4,4.1,61.6,61.6,0,0,1-14.3,1.4H378.4v-1.5l5.9-1.5V41.9l-5.9-1.5V38.9h28v1.5l-5.9,1.5V66.4h6.4Zm-6.4,2.5v36.3h6.4a12.5,12.5,0,0,0,9.8-4.5q3.9-4.5,3.9-13.7t-3.9-13.7a12.5,12.5,0,0,0-9.8-4.5h-6.4Z"/>
    </g>
  </g>
</svg>
