<svg xmlns="http://www.w3.org/2000/svg" width="154.3mm" height="52.2mm" viewBox="0 0 437.3 148">
  <title>logo_footer</title>
  <g>
    <path d="M52,95.1a20.7,20.7,0,0,1-4.1,5.9,19.9,19.9,0,0,1-5.8,4.1,15.6,15.6,0,0,1-6.8,1.5,16.2,16.2,0,0,1-7.2-1.6,14.4,14.4,0,0,1-5.8-5.5,31.8,31.8,0,0,1-3.8-10.3,77.6,77.6,0,0,1-1.4-16,80.8,80.8,0,0,1,1.3-16A35.8,35.8,0,0,1,22,47a14.1,14.1,0,0,1,5.1-5.5,11.6,11.6,0,0,1,5.8-1.6,13.1,13.1,0,0,1,8.3,2.7,24,24,0,0,1,5.5,5.9,32.9,32.9,0,0,1,3.8,8.5h3.9V38.4H52l-2,1.4-1.7,1.7a15.1,15.1,0,0,0-1.7,2.3,21.6,21.6,0,0,0-4.3-3.1,31.2,31.2,0,0,0-5-2.2,18.8,18.8,0,0,0-6.3-1,32.5,32.5,0,0,0-12.6,2.4,26.9,26.9,0,0,0-9.8,6.9A31.6,31.6,0,0,0,2.3,58,47.7,47.7,0,0,0,0,73.3,46.8,46.8,0,0,0,2.3,88.6,30.7,30.7,0,0,0,8.9,99.8a27.9,27.9,0,0,0,10.5,6.9,38.8,38.8,0,0,0,13.9,2.4,23.2,23.2,0,0,0,16.1-6.3A21.1,21.1,0,0,0,54.2,96,19.5,19.5,0,0,0,55.9,88H53.5A16.8,16.8,0,0,1,52,95.1Z" style="fill: #fff"/>
    <path d="M116.9,46.7a27,27,0,0,0-10.1-6.9,37.3,37.3,0,0,0-26.1,0,27,27,0,0,0-10.1,6.9A31.8,31.8,0,0,0,64.1,58a46.8,46.8,0,0,0-2.3,15.3,46.8,46.8,0,0,0,2.3,15.3,31.8,31.8,0,0,0,6.5,11.2,27,27,0,0,0,10.1,6.9,37.3,37.3,0,0,0,26.1,0,27,27,0,0,0,10.1-6.9,31.8,31.8,0,0,0,6.5-11.2,46.8,46.8,0,0,0,2.3-15.3A46.8,46.8,0,0,0,123.3,58,31.8,31.8,0,0,0,116.9,46.7Zm-9.7,42.8a38.5,38.5,0,0,1-3.4,10.4,14.2,14.2,0,0,1-4.8,5.6,9.2,9.2,0,0,1-10.4,0,14.1,14.1,0,0,1-4.8-5.6,38.5,38.5,0,0,1-3.4-10.4A83.6,83.6,0,0,1,79,73.3,83.6,83.6,0,0,1,80.3,57a38.6,38.6,0,0,1,3.4-10.4A14.1,14.1,0,0,1,88.5,41a9.2,9.2,0,0,1,10.4,0,14.2,14.2,0,0,1,4.8,5.6A38.6,38.6,0,0,1,107.1,57a83.6,83.6,0,0,1,1.3,16.2A83.6,83.6,0,0,1,107.1,89.5Z" style="fill: #fff"/>
    <path d="M143.8,51.2l29.9,57.4h2.9l23.1-57.4v53.5l-5.9,1.5v1.5h28v-1.5l-5.9-1.5V41.9l5.9-1.5V38.9H211.5a22.2,22.2,0,0,0-5.3.5,10.3,10.3,0,0,0-3.6,1.6,10.6,10.6,0,0,0-2.5,2.6,17.5,17.5,0,0,0-1.8,3.6L181.9,88.2,160.5,47.3a26.1,26.1,0,0,0-2.1-3.4,11.3,11.3,0,0,0-2.7-2.6,13.3,13.3,0,0,0-3.6-1.7,16.4,16.4,0,0,0-4.8-.6H134v1.5l6.9,1.5v61.3l-7.9,2.9v1.5h18.7v-1.5l-7.9-2.9v-52Z" style="fill: #fff"/>
    <polygon points="270.9 40.4 276.8 41.9 276.8 49.2 253.7 91.4 253.7 41.9 259.6 40.4 259.6 38.9 231.7 38.9 231.7 40.4 237.5 41.9 237.5 104.7 231.7 106.1 231.7 107.6 259.6 107.6 259.6 106.1 253.7 104.7 253.7 97.3 276.8 55.1 276.8 104.7 270.9 106.1 270.9 107.6 298.9 107.6 298.9 106.1 293 104.7 293 41.9 298.9 40.4 298.9 38.9 270.9 38.9 270.9 40.4" style="fill: #fff"/>
    <path d="M318,40.4l6.9,2-2,40.7a72.5,72.5,0,0,1-1.2,11.1,31.8,31.8,0,0,1-2.1,6.9,10,10,0,0,1-2.5,3.6,7.8,7.8,0,0,1-2.6,1.5V92.4l-1.3-.2-1.2-.2h-1.4a7.5,7.5,0,0,0-5.6,2.3,8.9,8.9,0,0,0,.4,12.3,9.9,9.9,0,0,0,7.1,2.5,9.5,9.5,0,0,0,4.6-1.2,10.9,10.9,0,0,0,4-4.2,30.2,30.2,0,0,0,3-8,69.1,69.1,0,0,0,1.6-12.6l2-41.7h18.7v63.3l-5.9,1.5v1.5h28v-1.5l-5.9-1.5V41.9l5.9-1.5V38.9H318v1.5Z" style="fill: #fff"/>
    <path d="M435.7,78.4a15.1,15.1,0,0,0-5.2-6.5,26.2,26.2,0,0,0-9.4-4.1,61.2,61.2,0,0,0-14.3-1.4h-6.4V41.9l5.9-1.5V38.9h-28v1.5l5.9,1.5v62.8l-5.9,1.5v1.5h28.5a61.6,61.6,0,0,0,14.3-1.4,26.2,26.2,0,0,0,9.4-4.1,15.2,15.2,0,0,0,5.2-6.5A24.6,24.6,0,0,0,435.7,78.4Zm-19,22.3a12.5,12.5,0,0,1-9.8,4.5h-6.4V68.9h6.4a12.5,12.5,0,0,1,9.8,4.5q3.9,4.5,3.9,13.7T416.7,100.7Z" style="fill: #fff"/>
    <path d="M158.9,30A24,24,0,0,1,168,21a73.1,73.1,0,0,0,11.8-8.2,31,31,0,0,1,15.6-7.2c7.2-1.1,14.5-2.1,21.8-2.9s15.5,0.5,23,2.8a93.4,93.4,0,0,1,22.4,10.7,22.5,22.5,0,0,1,5.6,5.4,157.6,157.6,0,0,0,10.3,11.9H282l-1.1-1.1a139.5,139.5,0,0,1-11.7-12.8,28.8,28.8,0,0,0-7.8-6.8,93.8,93.8,0,0,0-27-10.9A64.3,64.3,0,0,0,215,.2a181.1,181.1,0,0,0-22.7,3.6,29.3,29.3,0,0,0-14.7,7.5,49.5,49.5,0,0,1-11.5,8.1,20.2,20.2,0,0,0-8.4,8.1L154,34.4l2,0.8Z" style="fill: #fff"/>
    <path d="M278.5,115.8a57.7,57.7,0,0,1-13.6,15.3,44.2,44.2,0,0,1-9.7,5.5c-4.7,2.1-9.5,4.2-14.3,6.1a47.4,47.4,0,0,1-16.9,2.9h-6.6a101.1,101.1,0,0,1-17.4-1.4,61.4,61.4,0,0,1-24.9-11,65.2,65.2,0,0,1-16.2-16.4c-0.8-1.2-1.6-2.5-2.3-3.8H154a47,47,0,0,0,4.2,6.9,68.9,68.9,0,0,0,28.6,22.5,55.6,55.6,0,0,0,18.5,4.7l12,0.5V148h5.7a50,50,0,0,0,22.8-4.4l11.1-4.8c1.9-.8,3.9-1.7,5.7-2.7a48.8,48.8,0,0,0,15.7-14.4,74.2,74.2,0,0,0,5.4-8.5H280Z" style="fill: #fff"/>
    <path d="M180.1,114.1H177a27.2,27.2,0,0,0,6.9,6.3c2.8,1.8,5.8,3.5,8.6,5.4a32.7,32.7,0,0,0,17.4,5.4,125.6,125.6,0,0,0,18.4-1.1c6.3-.7,12.3-2.6,18.3-4.8a18.5,18.5,0,0,0,7.2-4.8,42.6,42.6,0,0,1,4.4-4q2.1-1.7,4-3.4h-3.4l-5,4.5-5,4.5a5.8,5.8,0,0,1-1.8,1,79.1,79.1,0,0,1-22,4.9l-14.7.6a24.3,24.3,0,0,1-12.6-3.2c-4.5-2.5-9-5.2-13.4-7.9A15.4,15.4,0,0,1,180.1,114.1Z" style="fill: #fff"/>
    <path d="M219.4,18.8c7,0,13,.5,18.9,2.4A32,32,0,0,1,249,26.9c2.5,2,5.1,3.8,7.8,5.5l1.3,0.9h3.8a26.4,26.4,0,0,0-3.7-2.8,79.5,79.5,0,0,1-7.6-5.5,32.4,32.4,0,0,0-11-5.9c-6.9-2-13.9-2.7-22.1-2.8l-6.6.4-4.7.6a44.2,44.2,0,0,0-24.9,12c-3.6,3.5-6.9,7.2-10.4,10.8a33.6,33.6,0,0,0-4.7,6.2l1.3,2.4a30.4,30.4,0,0,1,4.5-6.3c3.4-3.7,6.9-7.5,10.5-11,6.4-6.2,14.2-9.6,22.9-11.2A80.8,80.8,0,0,1,219.4,18.8Z" style="fill: #fff"/>
    <path d="M187.9,95.4l-1,2.4a36.3,36.3,0,0,0,3,3.6l2.3-.6A34.5,34.5,0,0,1,187.9,95.4Z" style="fill: #fff"/>
    <path d="M179.7,61.9c-0.3,2.7-.7,5.3-1.2,7.9l1.7,3.3a8.2,8.2,0,0,0,.1-1.5,59,59,0,0,1,1.1-10.2,20.1,20.1,0,0,1,3.8-8.7,47.2,47.2,0,0,1,8.9-9.5,21.3,21.3,0,0,1,1.5-2.6,16.1,16.1,0,0,1,1.7-2.1,42.3,42.3,0,0,0-11.9,10.7C182.4,53,180.2,57.1,179.7,61.9Z" style="fill: #fff"/>
    <path d="M232,91.4a13.3,13.3,0,0,1-7.9,3.8l-2.7.3v2.4l4.8-.7a15.6,15.6,0,0,0,5.8-2.2V91.4Z" style="fill: #fff"/>
    <path d="M232,54.9a17.8,17.8,0,0,0-8.2-4.3l-2.4-.4v1.6a16.3,16.3,0,0,1,10.4,5.9V54.9Z" style="fill: #fff"/>
    <path d="M223.1,75.5a5.3,5.3,0,0,1-1.7,2.1v2.6a8.5,8.5,0,0,0,4.7-7.7c-0.2-3.3-2-5.8-4.7-6.5v2.3a4,4,0,0,1,2.3,4.8A12.8,12.8,0,0,1,223.1,75.5Z" style="fill: #fff"/>
  </g>
</svg>
