<?xml version="1.0" encoding="utf-8"?>
<!-- Generator: Adobe Illustrator 19.2.1, SVG Export Plug-In . SVG Version: 6.00 Build 0)  -->
<svg version="1.1" id="Layer_1" xmlns="http://www.w3.org/2000/svg" xmlns:xlink="http://www.w3.org/1999/xlink" x="0px" y="0px"
	 viewBox="0 0 128 133" style="enable-background:new 0 0 128 133;" xml:space="preserve">
<style type="text/css">
	.st0{fill:#FFFFFF;}
</style>
<image style="overflow:visible;enable-background:new    ;" width="128" height="133" xlink:href="splat.png" >
</image>
<path id="Shape_155_copy_46" class="st0" d="M59.6,53.7c-1.1,0-2-0.8-2-1.9c0-1.1,0.8-2,1.9-2s2,0.8,2,1.9c0,0,0,0,0,0.1
	C61.5,52.8,60.7,53.7,59.6,53.7z M59.6,51.1c-0.4,0-0.7,0.3-0.7,0.6s0.3,0.7,0.6,0.7c0.4,0,0.7-0.3,0.7-0.6l0,0
	C60.3,51.4,60,51.1,59.6,51.1z M64.6,65.5c-0.4,0-0.6-0.3-0.6-0.6l0,0c0-5.7-0.3-8.6-2.2-10c-0.3-0.3-0.4-0.7-0.2-1s0.6-0.4,0.9-0.2
	l0,0c2.3,1.8,2.7,5,2.7,11.1C65.2,65.2,64.9,65.5,64.6,65.5L64.6,65.5z M58.4,77c-0.1,0-0.2,0-0.3-0.1c-0.3-0.2-0.4-0.6-0.2-0.9
	l6.2-11.5c0.1-0.2,0.3-0.3,0.5-0.3l0,0c0.2,0,0.4,0.1,0.5,0.3L71.4,76c0.2,0.3,0.1,0.7-0.2,0.9c-0.3,0.2-0.7,0.1-0.8-0.2l0,0
	l-5.8-10.5l-5.7,10.5C58.8,76.9,58.6,77,58.4,77z M62.3,55.6c-0.3,0-0.5-0.3-0.6-0.6c0-0.3,0.2-0.7,0.6-0.7c3.2-0.5,5.1-1.7,5.4-3.3
	c0.1-1.5-0.7-3-2.1-3.7c-0.3-0.3-0.4-0.7-0.2-1c0.1-0.3,0.5-0.4,0.8-0.2l0,0c1.8,1,2.9,3,2.7,5.1C68.7,52.5,67.5,54.8,62.3,55.6
	C62.4,55.6,62.4,55.6,62.3,55.6z M64.6,63.5c-0.1,0-0.2,0-0.2-0.1L57,60.1c-0.3,0-0.5-0.2-0.5-0.4s0-0.4,0.2-0.6l5.2-4.6
	c0.3-0.2,0.6-0.2,0.9,0.1l0,0c0.2,0.3,0.2,0.7-0.1,0.9l-4.5,4l6.5,2.9c0.3,0.1,0.5,0.5,0.3,0.8C65,63.4,64.8,63.5,64.6,63.5z"/>
<g>
	<path class="st0" d="M53.4,89.8h-2.9v-1h7v1h-2.9v8.4h-1.2V89.8z"/>
	<path class="st0" d="M57.9,95.1c0,1.7,1.1,2.4,2.3,2.4c0.9,0,1.4-0.2,1.9-0.4l0.2,0.9c-0.4,0.2-1.2,0.4-2.3,0.4
		c-2.1,0-3.3-1.4-3.3-3.4c0-2,1.2-3.7,3.2-3.7c2.2,0,2.8,1.9,2.8,3.2c0,0.3,0,0.4,0,0.6H57.9z M61.5,94.2c0-0.8-0.3-2-1.7-2
		c-1.2,0-1.8,1.1-1.9,2H61.5z"/>
	<path class="st0" d="M69.4,91.5v6.8h-1.2v-5.8h-2.3v1.8c0,1.9-0.2,3.2-1.1,3.8c-0.3,0.3-0.7,0.4-1.3,0.4l-0.1-1
		c0.2,0,0.5-0.1,0.7-0.3c0.6-0.5,0.7-1.4,0.7-2.9v-2.7H69.4z"/>
	<path class="st0" d="M77.5,94.8c0,2.5-1.7,3.6-3.4,3.6c-1.8,0-3.3-1.3-3.3-3.5c0-2.3,1.5-3.6,3.4-3.6
		C76.2,91.3,77.5,92.7,77.5,94.8z M72.1,94.9c0,1.5,0.9,2.6,2.1,2.6c1.2,0,2.1-1.1,2.1-2.6c0-1.1-0.6-2.6-2-2.6
		C72.8,92.2,72.1,93.6,72.1,94.9z"/>
</g>
</svg>
