<?xml version="1.0" encoding="utf-8"?>
<!-- Generator: Adobe Illustrator 19.2.1, SVG Export Plug-In . SVG Version: 6.00 Build 0)  -->
<svg version="1.1" id="Layer_1" xmlns="http://www.w3.org/2000/svg" xmlns:xlink="http://www.w3.org/1999/xlink" x="0px" y="0px"
	 viewBox="0 0 128 266" style="enable-background:new 0 0 128 266;" xml:space="preserve">
<style type="text/css">
	.st0{fill:#FFFFFF;}
	.st1{fill:#CCCCCC;}
	.st2{fill:none;}
</style>
<g>
	<image style="overflow:visible;enable-background:new    ;" width="128" height="133" xlink:href="splat.png" >
	</image>
	<path id="Shape_155_copy_46" class="st0" d="M59.6,53.7c-1.1,0-2-0.8-2-1.9c0-1.1,0.8-2,1.9-2s2,0.8,2,1.9c0,0,0,0,0,0.1
		C61.5,52.8,60.7,53.7,59.6,53.7z M59.6,51.1c-0.4,0-0.7,0.3-0.7,0.6s0.3,0.7,0.6,0.7c0.4,0,0.7-0.3,0.7-0.6l0,0
		C60.3,51.4,60,51.1,59.6,51.1z M64.6,65.5c-0.4,0-0.6-0.3-0.6-0.6l0,0c0-5.7-0.3-8.6-2.2-10c-0.3-0.3-0.4-0.7-0.2-1
		s0.6-0.4,0.9-0.2l0,0c2.3,1.8,2.7,5,2.7,11.1C65.2,65.2,64.9,65.5,64.6,65.5L64.6,65.5z M58.4,77c-0.1,0-0.2,0-0.3-0.1
		c-0.3-0.2-0.4-0.6-0.2-0.9l6.2-11.5c0.1-0.2,0.3-0.3,0.5-0.3l0,0c0.2,0,0.4,0.1,0.5,0.3L71.4,76c0.2,0.3,0.1,0.7-0.2,0.9
		c-0.3,0.2-0.7,0.1-0.8-0.2l0,0l-5.8-10.5l-5.7,10.5C58.8,76.9,58.6,77,58.4,77z M62.3,55.6c-0.3,0-0.5-0.3-0.6-0.6
		c0-0.3,0.2-0.7,0.6-0.7c3.2-0.5,5.1-1.7,5.4-3.3c0.1-1.5-0.7-3-2.1-3.7c-0.3-0.3-0.4-0.7-0.2-1c0.1-0.3,0.5-0.4,0.8-0.2l0,0
		c1.8,1,2.9,3,2.7,5.1C68.7,52.5,67.5,54.8,62.3,55.6C62.4,55.6,62.4,55.6,62.3,55.6z M64.6,63.5c-0.1,0-0.2,0-0.2-0.1L57,60.1
		c-0.3,0-0.5-0.2-0.5-0.4s0-0.4,0.2-0.6l5.2-4.6c0.3-0.2,0.6-0.2,0.9,0.1l0,0c0.2,0.3,0.2,0.7-0.1,0.9l-4.5,4l6.5,2.9
		c0.3,0.1,0.5,0.5,0.3,0.8C65,63.4,64.8,63.5,64.6,63.5z"/>
</g>
<g>
	<path id="Shape_155_copy_46_1_" class="st1" d="M59.6,186.7c-1.1,0-2-0.8-2-1.9c0-1.1,0.8-2,1.9-2c1.1,0,2,0.8,2,1.9c0,0,0,0,0,0.1
		C61.5,185.8,60.7,186.7,59.6,186.7z M59.6,184.1c-0.4,0-0.7,0.3-0.7,0.6s0.3,0.7,0.6,0.7c0.4,0,0.7-0.3,0.7-0.6c0,0,0,0,0,0
		C60.3,184.4,60,184.1,59.6,184.1z M64.6,198.5c-0.4,0-0.6-0.3-0.6-0.6c0,0,0,0,0,0c0-5.7-0.3-8.6-2.2-10c-0.3-0.2-0.3-0.6-0.1-0.9
		c0.2-0.3,0.6-0.3,0.9-0.1c0,0,0,0,0,0c2.3,1.8,2.7,5,2.7,11.1C65.2,198.2,64.9,198.5,64.6,198.5C64.6,198.5,64.6,198.5,64.6,198.5z
		 M58.4,210c-0.1,0-0.2,0-0.3-0.1c-0.3-0.2-0.4-0.6-0.2-0.9l6.2-11.5c0.1-0.2,0.3-0.3,0.5-0.3l0,0c0.2,0,0.4,0.1,0.5,0.3l6.3,11.5
		c0.2,0.3,0.1,0.7-0.2,0.9c-0.3,0.2-0.7,0.1-0.8-0.2c0,0,0,0,0,0l-5.7-10.5l-5.6,10.5C58.8,209.9,58.6,210,58.4,210z M62.3,188.6
		c-0.3,0-0.6-0.2-0.6-0.6c-0.1-0.4,0.2-0.7,0.5-0.7c3.2-0.5,5.1-1.7,5.4-3.3c0.1-1.5-0.7-3-2.1-3.7c-0.3-0.2-0.4-0.6-0.2-0.9
		c0.2-0.3,0.5-0.4,0.8-0.3c0,0,0,0,0,0c1.8,1,2.9,3,2.7,5.1C68.7,185.5,67.5,187.8,62.3,188.6C62.4,188.6,62.4,188.6,62.3,188.6z
		 M64.6,196.5c-0.1,0-0.2,0-0.2-0.1l-7.4-3.3c-0.2-0.1-0.3-0.3-0.4-0.5c0-0.2,0-0.4,0.2-0.6l5.2-4.6c0.3-0.2,0.6-0.2,0.9,0.1
		c0,0,0,0,0,0c0.2,0.3,0.2,0.7-0.1,0.9l-4.5,4l6.5,2.9c0.3,0.1,0.5,0.5,0.3,0.8C65,196.4,64.8,196.5,64.6,196.5z"/>
	<rect y="133" class="st2" width="128" height="133"/>
</g>
</svg>
