<?xml version="1.0" encoding="utf-8"?>
<!-- Generator: Adobe Illustrator 19.2.1, SVG Export Plug-In . SVG Version: 6.00 Build 0)  -->
<svg version="1.1" id="Layer_1" xmlns="http://www.w3.org/2000/svg" xmlns:xlink="http://www.w3.org/1999/xlink" x="0px" y="0px"
	 viewBox="0 0 22.7 47" style="enable-background:new 0 0 22.7 47;" xml:space="preserve">
<style type="text/css">
	.st0{fill:#FFFFFF;}
</style>
<path id="Shape_155_copy_46" class="st0" d="M4.8,11.7c-1.6,0.1-3-1.2-3.1-2.8c-0.1-1.6,1.2-3,2.8-3.1c1.6-0.1,3,1.2,3.1,2.8
	c0,0,0,0.1,0,0.1C7.6,10.3,6.4,11.6,4.8,11.7z M4.8,7.7c-0.5,0-1,0.4-1,0.9c0,0.5,0.4,1,0.9,1c0.5,0,1-0.4,1-0.9c0,0,0,0,0,0
	C5.7,8.2,5.3,7.7,4.8,7.7z M12.2,29.5c-0.5,0-1-0.5-1-1c0,0,0,0,0,0c0-8.6-0.5-13-3.3-15.2C7.6,13,7.5,12.4,7.8,12
	c0.3-0.4,0.9-0.5,1.3-0.2c0,0,0,0,0,0c3.5,2.7,4.1,7.5,4.1,16.8C13.2,29.1,12.8,29.5,12.2,29.5C12.2,29.5,12.2,29.5,12.2,29.5z
	 M2.9,47c-0.2,0-0.3,0-0.5-0.1C1.9,46.6,1.8,46,2,45.5l9.4-17.5c0.2-0.3,0.5-0.5,0.8-0.5l0,0c0.3,0,0.7,0.2,0.8,0.5l9.6,17.5
	c0.3,0.5,0.1,1.1-0.4,1.3c-0.4,0.3-1,0.1-1.3-0.3c0,0,0,0,0-0.1l-8.7-15.9L3.7,46.5C3.5,46.8,3.2,47,2.9,47z M8.9,14.5
	c-0.5,0-0.9-0.4-0.9-0.8c-0.1-0.5,0.3-1,0.8-1.1c4.9-0.7,7.8-2.5,8.2-5.1c0.2-2.3-1.1-4.6-3.2-5.6c-0.5-0.3-0.6-0.9-0.4-1.3
	c0.2-0.5,0.8-0.6,1.3-0.4c0,0,0,0,0,0c2.8,1.5,4.4,4.5,4.1,7.7c-0.4,2-2.1,5.5-9.8,6.6C9,14.5,8.9,14.5,8.9,14.5z M12.2,26.6
	c-0.1,0-0.3,0-0.4-0.1l-11.3-5C0.3,21.3,0.1,21,0,20.7c0-0.3,0.1-0.7,0.3-0.9l7.9-7c0.4-0.3,1-0.3,1.3,0.1c0,0,0,0,0,0
	c0.3,0.4,0.3,1-0.1,1.4l-6.8,6l9.9,4.4c0.5,0.2,0.7,0.8,0.5,1.3C12.9,26.3,12.6,26.6,12.2,26.6z"/>
</svg>
