<?xml version="1.0" encoding="utf-8"?>
<!-- Generator: Adobe Illustrator 19.2.1, SVG Export Plug-In . SVG Version: 6.00 Build 0)  -->
<svg version="1.1" id="Layer_1" xmlns="http://www.w3.org/2000/svg" xmlns:xlink="http://www.w3.org/1999/xlink" x="0px" y="0px"
	 viewBox="0 0 15 31" style="enable-background:new 0 0 15 31;" xml:space="preserve">
<style type="text/css">
	.st0{fill:#FFFFFF;}
</style>
<path id="Shape_155_copy_46" class="st0" d="M3.1,7.7c-1.1,0-2-0.8-2-1.9c0-1.1,0.8-2,1.9-2c1.1,0,2,0.8,2,1.9c0,0,0,0,0,0.1
	C5,6.8,4.2,7.7,3.1,7.7z M3.1,5.1c-0.4,0-0.7,0.3-0.7,0.6s0.3,0.7,0.6,0.7c0.4,0,0.7-0.3,0.7-0.6c0,0,0,0,0,0
	C3.8,5.4,3.5,5.1,3.1,5.1z M8.1,19.5c-0.4,0-0.6-0.3-0.6-0.6c0,0,0,0,0,0c0-5.7-0.3-8.6-2.2-10C5,8.6,4.9,8.2,5.1,7.9
	C5.3,7.6,5.7,7.5,6,7.7c0,0,0,0,0,0c2.3,1.8,2.7,5,2.7,11.1C8.7,19.2,8.4,19.5,8.1,19.5C8.1,19.5,8.1,19.5,8.1,19.5z M1.9,31
	c-0.1,0-0.2,0-0.3-0.1c-0.3-0.2-0.4-0.6-0.2-0.9l6.2-11.5c0.1-0.2,0.3-0.3,0.5-0.3l0,0c0.2,0,0.4,0.1,0.5,0.3L14.9,30
	c0.2,0.3,0.1,0.7-0.2,0.9c-0.3,0.2-0.7,0.1-0.8-0.2c0,0,0,0,0,0L8.1,20.2L2.4,30.7C2.3,30.9,2.1,31,1.9,31z M5.8,9.6
	C5.5,9.6,5.3,9.3,5.2,9C5.2,8.7,5.4,8.3,5.8,8.3c3.2-0.5,5.1-1.7,5.4-3.3c0.1-1.5-0.7-3-2.1-3.7C8.8,1,8.7,0.6,8.9,0.3
	C9,0,9.4-0.1,9.7,0.1c0,0,0,0,0,0c1.8,1,2.9,3,2.7,5.1C12.2,6.5,11,8.8,5.8,9.6C5.9,9.6,5.9,9.6,5.8,9.6z M8.1,17.5
	c-0.1,0-0.2,0-0.2-0.1l-7.4-3.3C0.2,14.1,0,13.9,0,13.7c0-0.2,0-0.4,0.2-0.6l5.2-4.6c0.3-0.2,0.6-0.2,0.9,0.1c0,0,0,0,0,0
	c0.2,0.3,0.2,0.7-0.1,0.9l-4.5,4l6.5,2.9c0.3,0.1,0.5,0.5,0.3,0.8C8.5,17.4,8.3,17.5,8.1,17.5z"/>
</svg>
