<svg xmlns="http://www.w3.org/2000/svg" width="15" height="31" viewBox="0 0 15 31">
  <defs>
    <style>
      .cls-1 {
        fill: #ccc;
        fill-rule: evenodd;
      }
    </style>
  </defs>
  <path id="Shape_155_copy_46" data-name="Shape 155 copy 46" class="cls-1" d="M425.138,1075.69a1.951,1.951,0,1,1,1.881-1.95A1.923,1.923,0,0,1,425.138,1075.69Zm0-2.6a0.65,0.65,0,1,0,.627.65A0.639,0.639,0,0,0,425.138,1073.09Zm4.937,14.39a0.639,0.639,0,0,1-.628-0.65c0-5.65-.326-8.59-2.184-10.03a0.664,0.664,0,0,1-.125-0.91,0.615,0.615,0,0,1,.878-0.13c2.284,1.77,2.686,4.98,2.686,11.07A0.638,0.638,0,0,1,430.075,1087.48ZM423.882,1099a0.567,0.567,0,0,1-.305-0.08,0.657,0.657,0,0,1-.243-0.88l6.192-11.53a0.63,0.63,0,0,1,.546-0.33h0a0.631,0.631,0,0,1,.546.33l6.3,11.53a0.656,0.656,0,0,1-.237.88,0.609,0.609,0,0,1-.855-0.25l-5.747-10.51-5.648,10.51A0.628,0.628,0,0,1,423.882,1099Zm3.966-21.44a0.635,0.635,0,0,1-.62-0.55,0.645,0.645,0,0,1,.529-0.74c3.2-.49,5.124-1.68,5.427-3.34a3.865,3.865,0,0,0-2.091-3.72,0.653,0.653,0,0,1-.232-0.88,0.616,0.616,0,0,1,.857-0.24,5.155,5.155,0,0,1,2.7,5.08c-0.238,1.3-1.394,3.6-6.475,4.38A0.3,0.3,0,0,1,427.848,1077.56Zm2.209,7.97a0.732,0.732,0,0,1-.249-0.05l-7.43-3.33a0.655,0.655,0,0,1-.371-0.5,0.668,0.668,0,0,1,.211-0.59l5.222-4.64a0.618,0.618,0,0,1,.885.07,0.659,0.659,0,0,1-.066.91l-4.463,3.97,6.511,2.92a0.652,0.652,0,0,1,.326.85A0.633,0.633,0,0,1,430.057,1085.53Z" transform="translate(-422 -1068)"/>
</svg>
