<?xml version="1.0" encoding="utf-8"?>
<!-- Generator: Adobe Illustrator 19.2.1, SVG Export Plug-In . SVG Version: 6.00 Build 0)  -->
<svg version="1.1" id="Layer_1" xmlns="http://www.w3.org/2000/svg" xmlns:xlink="http://www.w3.org/1999/xlink" x="0px" y="0px"
	 viewBox="0 0 128 133" style="enable-background:new 0 0 128 133;" xml:space="preserve">
<style type="text/css">
	.st0{fill:#FFFFFF;}
</style>
<image style="overflow:visible;" width="128" height="133" xlink:href="splat.png" >
</image>
<path id="Shape_155_copy_20" class="st0" d="M64,63.4c-5.5,0-9.3-12.6-9.3-16.8c0-0.3,0.3-0.6,0.7-0.6l0,0h17.2
	c0.4,0,0.7,0.3,0.7,0.7C73.3,50.8,69.5,63.4,64,63.4z M56.1,47.3C56.4,52,60,62.2,64,62.2s7.6-10.2,7.9-14.9H56.1L56.1,47.3z
	 M57.1,60.7c-0.2,0-0.4-0.1-0.5-0.3c-0.3-0.4-0.2-0.8,0.5-1.6c-4-0.2-7.4-3-8.6-6.8c0-0.2,0-0.4,0.1-0.6c0.1-0.2,0.3-0.2,0.5-0.2
	h6.6c0.4,0,0.7,0.3,0.7,0.6l0,0c0,0.4-0.3,0.7-0.7,0.7l0,0H50c0.7,1.6,2.8,5.2,8.5,5.2c0.3,0,0.5,0.2,0.6,0.4c0.1,0.2,0,0.5-0.2,0.7
	c-0.5,0.4-0.9,0.9-1.2,1.4c0,0.2-0.1,0.3-0.3,0.4C57.4,60.7,57.3,60.7,57.1,60.7z M71.1,60.7c-0.2,0-0.4-0.1-0.6-0.3
	c0-0.1-0.3-0.4-1.6-1.6c-0.2-0.2-0.2-0.5-0.1-0.7c0.1-0.2,0.3-0.4,0.6-0.4c5.7,0,7.8-3.6,8.5-5.2h-5.1c-0.4,0-0.6-0.3-0.7-0.6l0,0
	c0-0.4,0.3-0.6,0.6-0.6l0,0h6.1c0.2,0,0.4,0.1,0.5,0.2c0.2,0.1,0.2,0.3,0.2,0.5c-1.2,3.8-4.5,6.6-8.5,6.9c0.3,0.3,0.6,0.6,0.8,0.9
	c0.2,0.3,0,0.7-0.3,0.9l0,0C71.3,60.7,71.2,60.7,71.1,60.7z M71.5,77H55.7c-0.4,0-0.6-0.3-0.7-0.6l0,0v-3.9c0-0.4,0.3-0.6,0.6-0.7
	l0,0h15.9c0.4,0,0.7,0.3,0.7,0.7v3.9C72.1,76.7,71.8,77,71.5,77z M56.4,75.7h14.4v-2.6H56.4V75.7z M58.1,72.2c-0.1,0-0.1,0-0.2,0
	c-0.3-0.1-0.6-0.4-0.5-0.8l0,0L60.1,61c0.1-0.4,0.4-0.6,0.8-0.5c0.3,0.1,0.6,0.4,0.5,0.8l0,0l-2.6,10.3C58.6,72,58.4,72.2,58.1,72.2
	L58.1,72.2z M69.9,72.2c-0.3,0-0.6-0.2-0.6-0.5l-2.6-10.3c-0.1-0.3,0.1-0.7,0.4-0.8l0,0c0.3-0.1,0.7,0.1,0.8,0.5l0,0l2.6,10.3
	C70.6,71.7,70.4,72.1,69.9,72.2L69.9,72.2C70,72.2,70,72.2,69.9,72.2L69.9,72.2z"/>
</svg>
