<svg xmlns="http://www.w3.org/2000/svg" width="31" height="31" viewBox="0 0 31 31">
  <defs>
    <style>
      .cls-1 {
        fill: #ccc;
        fill-rule: evenodd;
      }
    </style>
  </defs>
  <path id="Shape_155_copy_20" data-name="Shape 155 copy 20" class="cls-1" d="M1043.49,1085.44c-5.52,0-9.25-12.61-9.25-16.79a0.649,0.649,0,0,1,.65-0.65h17.2a0.657,0.657,0,0,1,.66.65C1052.75,1072.83,1049.01,1085.44,1043.49,1085.44Zm-7.92-16.15c0.33,4.71,3.95,14.86,7.92,14.86s7.59-10.15,7.92-14.86h-15.84Zm1.05,13.41a0.639,0.639,0,0,1-.52-0.25c-0.28-.36-0.17-0.8.48-1.57a9.8,9.8,0,0,1-8.58-6.92,0.645,0.645,0,0,1,.12-0.55,0.692,0.692,0,0,1,.52-0.24h6.58a0.643,0.643,0,0,1,.66.64,0.651,0.651,0,0,1-.66.65h-5.67c0.68,1.63,2.82,5.2,8.47,5.2a0.68,0.68,0,0,1,.61.4,0.632,0.632,0,0,1-.15.7,8.054,8.054,0,0,0-1.21,1.37,0.625,0.625,0,0,1-.25.44A0.66,0.66,0,0,1,1036.62,1082.7Zm14.01,0a0.667,0.667,0,0,1-.56-0.3c-0.04-.05-0.31-0.39-1.57-1.64a0.613,0.613,0,0,1-.14-0.7,0.655,0.655,0,0,1,.6-0.4c5.65,0,7.79-3.56,8.47-5.2h-5.14a0.649,0.649,0,0,1-.65-0.65,0.64,0.64,0,0,1,.65-0.64h6.05a0.692,0.692,0,0,1,.52.24,0.645,0.645,0,0,1,.12.55,9.757,9.757,0,0,1-8.54,6.91,4.584,4.584,0,0,1,.78.91,0.637,0.637,0,0,1-.31.86A0.671,0.671,0,0,1,1050.63,1082.7Zm0.35,16.3h-15.76a0.649,0.649,0,0,1-.65-0.65v-3.87a0.649,0.649,0,0,1,.65-0.65h15.76a0.657,0.657,0,0,1,.66.65v3.87A0.657,0.657,0,0,1,1050.98,1099Zm-15.1-1.29h14.44v-2.59h-14.44v2.59Zm1.7-3.53a0.468,0.468,0,0,1-.16-0.02,0.632,0.632,0,0,1-.47-0.78l2.62-10.33a0.657,0.657,0,0,1,.8-0.47,0.632,0.632,0,0,1,.47.78l-2.62,10.33A0.652,0.652,0,0,1,1037.58,1094.18Zm11.82,0a0.652,0.652,0,0,1-.64-0.49l-2.62-10.33a0.632,0.632,0,0,1,.47-0.78,0.653,0.653,0,0,1,.8.47l2.63,10.33a0.646,0.646,0,0,1-.48.78A0.44,0.44,0,0,1,1049.4,1094.18Z" transform="translate(-1028 -1068)"/>
</svg>
