<?xml version="1.0" encoding="utf-8"?>
<!-- Generator: Adobe Illustrator 19.2.1, SVG Export Plug-In . SVG Version: 6.00 Build 0)  -->
<svg version="1.1" id="Layer_1" xmlns="http://www.w3.org/2000/svg" xmlns:xlink="http://www.w3.org/1999/xlink" x="0px" y="0px"
	 viewBox="0 0 47 47" style="enable-background:new 0 0 47 47;" xml:space="preserve">
<style type="text/css">
	.st0{fill:#FFFFFF;}
</style>
<path id="Shape_155_copy_20" class="st0" d="M23.5,26.4c-8.4,0-14-19.1-14-25.4c0-0.5,0.4-1,1-1c0,0,0,0,0,0h26.1c0.5,0,1,0.4,1,1
	C37.5,7.3,31.9,26.4,23.5,26.4z M11.5,2c0.5,7.1,6,22.5,12,22.5S35,9.1,35.5,2H11.5L11.5,2z M13.1,22.3c-0.3,0-0.6-0.1-0.8-0.4
	c-0.4-0.5-0.3-1.2,0.7-2.4C7,19,1.8,14.9,0,9C0,8.7,0,8.4,0.2,8.2C0.4,8,0.7,7.8,1,7.8h10c0.5,0,1,0.4,1,0.9c0,0,0,0,0,0
	c0,0.5-0.4,1-1,1c0,0,0,0,0,0H2.4c1,2.5,4.3,7.9,12.8,7.9c0.4,0,0.8,0.2,0.9,0.6c0.2,0.4,0.1,0.8-0.2,1.1c-0.7,0.6-1.3,1.3-1.8,2.1
	c0,0.3-0.2,0.5-0.4,0.7C13.5,22.2,13.3,22.3,13.1,22.3z M34.3,22.3c-0.3,0-0.7-0.2-0.8-0.5c-0.1-0.1-0.5-0.6-2.4-2.5
	c-0.3-0.3-0.4-0.7-0.2-1.1c0.2-0.4,0.5-0.6,0.9-0.6c8.6,0,11.8-5.4,12.8-7.9h-7.8c-0.5,0-1-0.4-1-1c0,0,0,0,0,0c0-0.5,0.4-1,1-1
	c0,0,0,0,0,0H46c0.3,0,0.6,0.1,0.8,0.4C47,8.4,47,8.7,47,9c-1.8,5.8-6.9,10-12.9,10.5c0.5,0.4,0.8,0.9,1.2,1.4
	c0.2,0.5,0,1.1-0.4,1.3c0,0,0,0,0,0C34.6,22.2,34.5,22.3,34.3,22.3z M34.8,47H11c-0.5,0-1-0.4-1-1c0,0,0,0,0,0v-5.9c0-0.5,0.4-1,1-1
	c0,0,0,0,0,0h23.9c0.5,0,1,0.4,1,1V46C35.8,46.5,35.4,47,34.8,47z M12,45h21.9v-3.9H12V45z M14.5,39.7c-0.1,0-0.2,0-0.2,0
	c-0.5-0.1-0.8-0.6-0.7-1.1c0,0,0,0,0,0l4-15.7c0.1-0.5,0.7-0.8,1.2-0.7c0.5,0.1,0.8,0.6,0.7,1.1c0,0,0,0,0,0l-4,15.7
	C15.4,39.4,15,39.7,14.5,39.7L14.5,39.7z M32.5,39.7c-0.5,0-0.9-0.3-1-0.7l-4-15.7c-0.1-0.5,0.2-1,0.7-1.2c0,0,0,0,0,0
	c0.5-0.1,1.1,0.2,1.2,0.7c0,0,0,0,0,0l4,15.7c0.1,0.5-0.2,1.1-0.7,1.2c0,0,0,0,0,0C32.6,39.7,32.5,39.7,32.5,39.7L32.5,39.7z"/>
</svg>
