<?xml version="1.0" encoding="utf-8"?>
<!-- Generator: Adobe Illustrator 19.2.1, SVG Export Plug-In . SVG Version: 6.00 Build 0)  -->
<svg version="1.1" id="Layer_1" xmlns="http://www.w3.org/2000/svg" xmlns:xlink="http://www.w3.org/1999/xlink" x="0px" y="0px"
	 viewBox="0 0 31 31" style="enable-background:new 0 0 31 31;" xml:space="preserve">
<style type="text/css">
	.st0{fill:#FFFFFF;}
</style>
<path id="Shape_155_copy_20" class="st0" d="M15.5,17.4C10,17.4,6.2,4.8,6.2,0.6C6.2,0.3,6.5,0,6.9,0c0,0,0,0,0,0h17.2
	c0.4,0,0.7,0.3,0.7,0.7C24.8,4.8,21,17.4,15.5,17.4z M7.6,1.3c0.3,4.7,3.9,14.9,7.9,14.9S23.1,6,23.4,1.3H7.6L7.6,1.3z M8.6,14.7
	c-0.2,0-0.4-0.1-0.5-0.3c-0.3-0.4-0.2-0.8,0.5-1.6C4.6,12.6,1.2,9.8,0,6c0-0.2,0-0.4,0.1-0.6c0.1-0.2,0.3-0.2,0.5-0.2h6.6
	c0.4,0,0.7,0.3,0.7,0.6c0,0,0,0,0,0c0,0.4-0.3,0.7-0.7,0.7c0,0,0,0,0,0H1.5c0.7,1.6,2.8,5.2,8.5,5.2c0.3,0,0.5,0.2,0.6,0.4
	c0.1,0.2,0,0.5-0.2,0.7c-0.5,0.4-0.9,0.9-1.2,1.4c0,0.2-0.1,0.3-0.3,0.4C8.9,14.7,8.8,14.7,8.6,14.7z M22.6,14.7
	c-0.2,0-0.4-0.1-0.6-0.3c0-0.1-0.3-0.4-1.6-1.6c-0.2-0.2-0.2-0.5-0.1-0.7c0.1-0.2,0.3-0.4,0.6-0.4c5.7,0,7.8-3.6,8.5-5.2h-5.1
	c-0.4,0-0.6-0.3-0.7-0.6c0,0,0,0,0,0c0-0.4,0.3-0.6,0.6-0.6c0,0,0,0,0,0h6.1c0.2,0,0.4,0.1,0.5,0.2C31,5.6,31,5.8,31,6
	c-1.2,3.8-4.5,6.6-8.5,6.9c0.3,0.3,0.6,0.6,0.8,0.9c0.2,0.3,0,0.7-0.3,0.9c0,0,0,0,0,0C22.8,14.7,22.7,14.7,22.6,14.7z M23,31H7.2
	c-0.4,0-0.6-0.3-0.7-0.6c0,0,0,0,0,0v-3.9c0-0.4,0.3-0.6,0.6-0.7c0,0,0,0,0,0H23c0.4,0,0.7,0.3,0.7,0.7v3.9C23.6,30.7,23.3,31,23,31
	z M7.9,29.7h14.4v-2.6H7.9V29.7z M9.6,26.2c-0.1,0-0.1,0-0.2,0c-0.3-0.1-0.6-0.4-0.5-0.8c0,0,0,0,0,0L11.6,15
	c0.1-0.4,0.4-0.6,0.8-0.5c0.3,0.1,0.6,0.4,0.5,0.8c0,0,0,0,0,0l-2.6,10.3C10.1,26,9.9,26.2,9.6,26.2L9.6,26.2z M21.4,26.2
	c-0.3,0-0.6-0.2-0.6-0.5l-2.6-10.3c-0.1-0.3,0.1-0.7,0.4-0.8c0,0,0,0,0,0c0.3-0.1,0.7,0.1,0.8,0.5c0,0,0,0,0,0L22,25.4
	c0.1,0.3-0.1,0.7-0.5,0.8c0,0,0,0,0,0C21.5,26.2,21.5,26.2,21.4,26.2L21.4,26.2z"/>
</svg>
