<?xml version="1.0" encoding="utf-8"?>
<!-- Generator: Adobe Illustrator 19.2.1, SVG Export Plug-In . SVG Version: 6.00 Build 0)  -->
<svg version="1.1" id="Layer_1" xmlns="http://www.w3.org/2000/svg" xmlns:xlink="http://www.w3.org/1999/xlink" x="0px" y="0px"
	 viewBox="0 0 128 133" style="enable-background:new 0 0 128 133;" xml:space="preserve">
<style type="text/css">
	.st0{fill:#FFFFFF;}
</style>
<image style="overflow:visible;enable-background:new    ;" width="128" height="133" xlink:href="splat.png" >
</image>
<path id="Shape_155_copy_20" class="st0" d="M64,63.4c-5.5,0-9.3-12.6-9.3-16.8c0-0.3,0.3-0.6,0.7-0.6l0,0h17.2
	c0.4,0,0.7,0.3,0.7,0.7C73.3,50.8,69.5,63.4,64,63.4z M56.1,47.3C56.4,52,60,62.2,64,62.2s7.6-10.2,7.9-14.9L56.1,47.3L56.1,47.3z
	 M57.1,60.7c-0.2,0-0.4-0.1-0.5-0.3c-0.3-0.4-0.2-0.8,0.5-1.6c-4-0.2-7.4-3-8.6-6.8c0-0.2,0-0.4,0.1-0.6c0.1-0.2,0.3-0.2,0.5-0.2
	h6.6c0.4,0,0.7,0.3,0.7,0.6l0,0c0,0.4-0.3,0.7-0.7,0.7l0,0H50c0.7,1.6,2.8,5.2,8.5,5.2c0.3,0,0.5,0.2,0.6,0.4s0,0.5-0.2,0.7
	c-0.5,0.4-0.9,0.9-1.2,1.4c0,0.2-0.1,0.3-0.3,0.4C57.4,60.7,57.3,60.7,57.1,60.7z M71.1,60.7c-0.2,0-0.4-0.1-0.6-0.3
	c0-0.1-0.3-0.4-1.6-1.6c-0.2-0.2-0.2-0.5-0.1-0.7s0.3-0.4,0.6-0.4c5.7,0,7.8-3.6,8.5-5.2h-5.1c-0.4,0-0.6-0.3-0.7-0.6l0,0
	c0-0.4,0.3-0.6,0.6-0.6l0,0h6.1c0.2,0,0.4,0.1,0.5,0.2c0.2,0.1,0.2,0.3,0.2,0.5c-1.2,3.8-4.5,6.6-8.5,6.9c0.3,0.3,0.6,0.6,0.8,0.9
	c0.2,0.3,0,0.7-0.3,0.9l0,0C71.3,60.7,71.2,60.7,71.1,60.7z M71.5,77H55.7c-0.4,0-0.6-0.3-0.7-0.6l0,0v-3.9c0-0.4,0.3-0.6,0.6-0.7
	l0,0h15.9c0.4,0,0.7,0.3,0.7,0.7v3.9C72.1,76.7,71.8,77,71.5,77z M56.4,75.7h14.4v-2.6H56.4V75.7z M58.1,72.2c-0.1,0-0.1,0-0.2,0
	c-0.3-0.1-0.6-0.4-0.5-0.8l0,0L60.1,61c0.1-0.4,0.4-0.6,0.8-0.5c0.3,0.1,0.6,0.4,0.5,0.8l0,0l-2.6,10.3C58.6,72,58.4,72.2,58.1,72.2
	L58.1,72.2z M69.9,72.2c-0.3,0-0.6-0.2-0.6-0.5l-2.6-10.3c-0.1-0.3,0.1-0.7,0.4-0.8l0,0c0.3-0.1,0.7,0.1,0.8,0.5l0,0l2.6,10.3
	C70.6,71.7,70.4,72.1,69.9,72.2L69.9,72.2C70,72.2,70,72.2,69.9,72.2L69.9,72.2z"/>
<g>
	<path class="st0" d="M23,87.2h4.4c-0.2-1.8-1.3-3.3-3.2-3.3c-0.8,0-1.4,0.2-2,0.5l-0.3-0.9c0.7-0.3,1.5-0.5,2.4-0.5
		c3,0,4.5,2.1,4.5,4.9c0,3.1-2,4.9-4.6,4.9c-0.9,0-1.8-0.2-2.5-0.5l0.3-1c0.5,0.3,1.3,0.4,2,0.4c2.1,0,3.3-1.5,3.4-3.5H23V87.2z"/>
	<path class="st0" d="M34.3,82.6v3c2,0.1,3.4,1.4,3.4,3.5c0,2.2-1.5,3.4-3.4,3.5v2.6h-1.1v-2.6c-2-0.1-3.4-1.4-3.4-3.5
		c0-2.2,1.5-3.4,3.4-3.6v-3H34.3z M33.2,86.5c-1.4,0.2-2.2,1.3-2.2,2.7c0,1.4,0.8,2.5,2.2,2.7V86.5z M34.3,91.8
		c1.4-0.2,2.2-1.3,2.2-2.7c0-1.4-0.8-2.5-2.2-2.7V91.8z"/>
	<path class="st0" d="M43.3,82.6v3c2,0.1,3.4,1.4,3.4,3.5c0,2.2-1.5,3.4-3.4,3.5v2.6h-1.1v-2.6c-2-0.1-3.4-1.4-3.4-3.5
		c0-2.2,1.5-3.4,3.4-3.6v-3H43.3z M42.1,86.5c-1.4,0.2-2.2,1.3-2.2,2.7c0,1.4,0.8,2.5,2.2,2.7V86.5z M43.3,91.8
		c1.4-0.2,2.2-1.3,2.2-2.7c0-1.4-0.8-2.5-2.2-2.7V91.8z"/>
	<path class="st0" d="M48.9,89.4c0,1.7,1.1,2.4,2.3,2.4c0.9,0,1.4-0.2,1.9-0.4l0.2,0.9c-0.4,0.2-1.2,0.4-2.3,0.4
		c-2.1,0-3.3-1.4-3.3-3.4c0-2,1.2-3.7,3.2-3.7c2.2,0,2.8,1.9,2.8,3.2c0,0.3,0,0.4,0,0.6H48.9z M52.5,88.5c0-0.8-0.3-2-1.7-2
		c-1.2,0-1.8,1.1-1.9,2H52.5z"/>
	<path class="st0" d="M56.4,85.8v2.9h0.3l2.5-2.9h1.5l-3,3.1c1.1,0.1,1.8,0.8,2.3,2.1c0.2,0.4,0.4,1.1,0.7,1.7h-1.3
		c-0.2-0.3-0.4-0.8-0.6-1.4c-0.5-1.1-1.1-1.6-2.2-1.6h-0.2v3h-1.2v-6.8H56.4z"/>
	<path class="st0" d="M66.7,85.8v1h-2.1v5.8h-1.2v-5.8h-2.1v-1H66.7z"/>
	<path class="st0" d="M68.9,85.8v2.9c0,1.1,0,1.8-0.1,2.7l0,0c0.4-0.8,0.6-1.3,1.1-2.1l2.1-3.5h1.4v6.8h-1.2v-2.9
		c0-1.1,0-1.7,0.1-2.8h0c-0.4,0.9-0.7,1.4-1.1,2.1c-0.6,1.1-1.4,2.4-2.1,3.5h-1.4v-6.8H68.9z"/>
	<path class="st0" d="M75.5,85.8c0.5-0.1,1.4-0.2,2.2-0.2c1.1,0,3,0.2,3,1.7c0,0.8-0.6,1.4-1.4,1.5v0c1,0.1,1.7,0.7,1.7,1.7
		c0,1.8-2.2,2-3.6,2c-0.8,0-1.5-0.1-1.9-0.1V85.8z M76.7,91.7c0.4,0,0.6,0.1,1,0.1c0.8,0,2.1-0.2,2.1-1.2s-1-1.2-2.2-1.2h-0.9V91.7z
		 M76.7,88.6h0.9c0.9,0,1.8-0.3,1.8-1.1c0-0.7-0.6-1-1.8-1c-0.4,0-0.7,0-1,0.1V88.6z"/>
	<path class="st0" d="M83.8,85.8v2.7H87v-2.7h1.2v6.8H87v-3.1h-3.2v3.1h-1.2v-6.8H83.8z"/>
	<path class="st0" d="M96.3,89.1c0,2.5-1.7,3.6-3.4,3.6c-1.8,0-3.3-1.3-3.3-3.5c0-2.3,1.5-3.6,3.4-3.6C95,85.6,96.3,87,96.3,89.1z
		 M91,89.2c0,1.5,0.9,2.6,2.1,2.6c1.2,0,2.1-1.1,2.1-2.6c0-1.1-0.6-2.6-2-2.6S91,87.9,91,89.2z"/>
	<path class="st0" d="M102.7,92.3c-0.3,0.2-1,0.4-1.9,0.4c-2,0-3.4-1.4-3.4-3.5c0-2.1,1.4-3.6,3.6-3.6c0.7,0,1.4,0.2,1.7,0.4l-0.3,1
		c-0.3-0.2-0.8-0.3-1.4-0.3c-1.6,0-2.4,1.1-2.4,2.6c0,1.6,1,2.5,2.4,2.5c0.7,0,1.2-0.2,1.5-0.3L102.7,92.3z"/>
	<path class="st0" d="M109,85.8v1h-2.1v5.8h-1.2v-5.8h-2.1v-1H109z"/>
	<path class="st0" d="M111.2,85.8v2.3c0.3-0.1,0.8-0.1,1.1-0.1c1.5,0,3.1,0.5,3.1,2.3c0,0.7-0.3,1.2-0.7,1.6
		c-0.7,0.6-1.9,0.8-2.9,0.8c-0.7,0-1.3,0-1.8-0.1v-6.8H111.2z M111.2,91.7c0.2,0,0.5,0.1,0.9,0.1c0.9,0,2.1-0.3,2.1-1.4
		c0-1.2-1.2-1.4-2.1-1.4c-0.3,0-0.6,0-0.9,0.1V91.7z"/>
</g>
</svg>
