<?xml version="1.0" encoding="utf-8"?>
<!-- Generator: Adobe Illustrator 19.2.1, SVG Export Plug-In . SVG Version: 6.00 Build 0)  -->
<svg version="1.1" id="Layer_1" xmlns="http://www.w3.org/2000/svg" xmlns:xlink="http://www.w3.org/1999/xlink" x="0px" y="0px"
	 viewBox="0 0 128 133" style="enable-background:new 0 0 128 133;" xml:space="preserve">
<style type="text/css">
	.st0{fill:#FFFFFF;}
</style>
<image style="overflow:visible;" width="128" height="133" xlink:href="splat.png" >
</image>
<path class="st0" d="M59.9,59.1c-0.1,0-0.2,0-0.3-0.1l-2-1l-2,1c-0.2,0.1-0.5,0.1-0.7-0.1c-0.2-0.1-0.3-0.4-0.3-0.6l0.4-2.2
	l-1.5-1.6c-0.2-0.1-0.3-0.4-0.2-0.6c0.1-0.2,0.3-0.4,0.5-0.4l2.2-0.3l1-2c0.2-0.3,0.6-0.4,0.9-0.2c0.1-0.1,0.2,0,0.3,0.1l1,2
	l2.2,0.3c0.2,0,0.4,0.2,0.5,0.4c0.1,0.2,0,0.5-0.2,0.7l-1.6,1.6l0.4,2.2C60.6,58.6,60.3,59,59.9,59.1C60,59,59.9,59.1,59.9,59.1z
	 M57.6,56.6c0.1,0,0.2,0,0.3,0.1l1.1,0.6L58.8,56c0-0.2,0-0.4,0.2-0.6l0.9-0.9l-1.3-0.2c-0.2,0-0.3-0.1-0.4-0.3l-0.6-1.2L57,54
	c-0.1,0.2-0.2,0.3-0.4,0.3l-1.3,0.2l0.9,0.9c0.2,0.1,0.2,0.4,0.2,0.6l-0.2,1.3l1.1-0.6C57.4,56.6,57.5,56.6,57.6,56.6L57.6,56.6z
	 M72.8,59.1c-0.1,0-0.2,0-0.3-0.1l-2-1l-2,1c-0.2,0.1-0.5,0.1-0.7-0.1c-0.2-0.1-0.3-0.4-0.3-0.6l0.4-2.2l-1.6-1.6
	c-0.2-0.2-0.2-0.4-0.2-0.7c0.1-0.2,0.3-0.4,0.5-0.4l2.2-0.3l1-2c0.2-0.3,0.6-0.4,0.9-0.2c0.1,0.1,0.2,0.1,0.2,0.2l1,2l2.2,0.3
	c0.2,0,0.4,0.2,0.5,0.4s0,0.5-0.2,0.7l-1.6,1.6l0.4,2.2c0.1,0.3-0.2,0.7-0.5,0.7C72.9,59,72.8,59.1,72.8,59.1L72.8,59.1z M70.5,56.6
	c0.1,0,0.2,0,0.3,0.1l1.1,0.6L71.7,56c0-0.2,0-0.4,0.2-0.6l0.9-0.9l-1.3-0.2c-0.2,0-0.4-0.2-0.5-0.4l-0.5-1.1L70,54
	c-0.1,0.2-0.3,0.3-0.5,0.4l-1.3,0.2l0.9,0.9c0.2,0.1,0.2,0.4,0.2,0.6l-0.2,1.3l1.1-0.6C70.3,56.6,70.4,56.6,70.5,56.6L70.5,56.6z
	 M64,77c-8.6,0-15.5-6.9-15.5-15.5S55.4,46,64,46s15.5,6.9,15.5,15.5S72.5,77,64,77z M64,47.3c-7.9,0-14.2,6.4-14.2,14.2
	S56.2,75.7,64,75.7s14.2-6.4,14.2-14.2l0,0C78.2,53.7,71.8,47.3,64,47.3z M64,73.1c-6.4,0-11.6-5.2-11.6-11.6c0-0.4,0.3-0.6,0.7-0.6
	c0.3,0,0.6,0.3,0.6,0.6c-0.1,5.7,4.5,10.4,10.2,10.4c5.7,0,10.4-4.5,10.4-10.2c0-0.1,0-0.1,0-0.2c0-0.4,0.3-0.6,0.6-0.6
	c0.4,0,0.6,0.3,0.6,0.6C75.6,67.9,70.4,73.1,64,73.1z"/>
</svg>
