<?xml version="1.0" encoding="utf-8"?>
<!-- Generator: Adobe Illustrator 19.2.1, SVG Export Plug-In . SVG Version: 6.00 Build 0)  -->
<svg version="1.1" id="Layer_1" xmlns="http://www.w3.org/2000/svg" xmlns:xlink="http://www.w3.org/1999/xlink" x="0px" y="0px"
	 viewBox="0 0 47 47" style="enable-background:new 0 0 47 47;" xml:space="preserve">
<style type="text/css">
	.st0{fill:#FFFFFF;}
</style>
<path class="st0" d="M17.3,19.8c-0.2,0-0.3,0-0.5-0.1l-3-1.6l-3,1.6c-0.3,0.2-0.7,0.1-1-0.1c-0.3-0.2-0.5-0.6-0.4-1l0.6-3.3
	l-2.4-2.4c-0.3-0.3-0.4-0.6-0.2-1c0.1-0.4,0.4-0.6,0.8-0.7l3.4-0.5l1.5-3c0.3-0.5,0.9-0.6,1.4-0.4c0.1,0.1,0.3,0.2,0.4,0.4l1.5,3
	l3.4,0.5c0.4,0,0.7,0.3,0.8,0.7c0.1,0.4,0,0.7-0.2,1l-2.4,2.4l0.6,3.3c0.1,0.5-0.2,1-0.8,1.1C17.4,19.8,17.3,19.8,17.3,19.8z
	 M13.8,16c0.2,0,0.3,0,0.5,0.1L16,17l-0.3-1.9c-0.1-0.3,0.1-0.6,0.3-0.9l1.4-1.3l-1.9-0.3c-0.3-0.1-0.6-0.3-0.7-0.5l-0.8-1.7
	L13,12.1c-0.1,0.3-0.4,0.5-0.7,0.5l-1.9,0.3l1.4,1.3c0.2,0.2,0.3,0.5,0.3,0.9L11.7,17l1.7-0.9C13.5,16,13.7,16,13.8,16L13.8,16z
	 M36.8,19.8c-0.2,0-0.3,0-0.5-0.1l-3-1.6l-3,1.6c-0.3,0.2-0.7,0.1-1-0.1c-0.3-0.2-0.5-0.6-0.4-1l0.6-3.3l-2.4-2.4
	c-0.3-0.3-0.4-0.6-0.2-1c0.1-0.4,0.4-0.6,0.8-0.7l3.4-0.5l1.5-3c0.3-0.5,0.9-0.6,1.4-0.4c0.1,0.1,0.3,0.2,0.4,0.4l1.5,3l3.4,0.5
	c0.4,0,0.7,0.3,0.8,0.7c0.1,0.4,0,0.7-0.2,1l-2.4,2.4l0.6,3.3c0.1,0.5-0.2,1-0.8,1.1C37,19.8,36.9,19.8,36.8,19.8L36.8,19.8z
	 M33.4,16c0.2,0,0.3,0,0.5,0.1l1.7,0.9l-0.3-1.9c-0.1-0.3,0.1-0.6,0.3-0.9l1.4-1.3L35,12.6c-0.3-0.1-0.6-0.3-0.7-0.5l-0.9-1.7
	l-0.8,1.7c-0.1,0.3-0.4,0.5-0.7,0.5l-1.9,0.3l1.4,1.3c0.2,0.2,0.3,0.5,0.3,0.9L31.2,17l1.7-0.9C33.1,16,33.2,16,33.4,16L33.4,16z
	 M23.5,47C10.5,47,0,36.5,0,23.5S10.5,0,23.5,0S47,10.5,47,23.5C47,36.5,36.5,47,23.5,47z M23.5,2C11.6,2,2,11.6,2,23.5
	S11.6,45,23.5,45C35.4,45,45,35.4,45,23.5c0,0,0,0,0,0C45,11.6,35.4,2,23.5,2z M23.5,41.1c-9.7,0-17.6-7.9-17.6-17.6
	c0-0.5,0.5-1,1-0.9c0.5,0,0.9,0.4,0.9,0.9c-0.1,8.7,6.9,15.7,15.5,15.8c8.7,0.1,15.7-6.9,15.8-15.5c0-0.1,0-0.2,0-0.3
	c0-0.5,0.4-1,1-1c0.5,0,1,0.4,1,1C41.1,33.2,33.2,41.1,23.5,41.1z"/>
</svg>
