<?xml version="1.0" encoding="utf-8"?>
<!-- Generator: Adobe Illustrator 19.2.1, SVG Export Plug-In . SVG Version: 6.00 Build 0)  -->
<svg version="1.1" id="Layer_1" xmlns="http://www.w3.org/2000/svg" xmlns:xlink="http://www.w3.org/1999/xlink" x="0px" y="0px"
	 viewBox="0 0 128 133" style="enable-background:new 0 0 128 133;" xml:space="preserve">
<style type="text/css">
	.st0{fill:#FFFFFF;}
</style>
<image style="overflow:visible;enable-background:new    ;" width="128" height="133" xlink:href="splat.png" >
</image>
<path class="st0" d="M59.9,59.1c-0.1,0-0.2,0-0.3-0.1l-2-1l-2,1c-0.2,0.1-0.5,0.1-0.7-0.1c-0.2-0.1-0.3-0.4-0.3-0.6l0.4-2.2
	l-1.5-1.6c-0.2-0.1-0.3-0.4-0.2-0.6c0.1-0.2,0.3-0.4,0.5-0.4l2.2-0.3l1-2c0.2-0.3,0.6-0.4,0.9-0.2c0.1-0.1,0.2,0,0.3,0.1l1,2
	l2.2,0.3c0.2,0,0.4,0.2,0.5,0.4s0,0.5-0.2,0.7l-1.6,1.6l0.4,2.2C60.6,58.6,60.3,59,59.9,59.1C60,59,59.9,59.1,59.9,59.1z M57.6,56.6
	c0.1,0,0.2,0,0.3,0.1l1.1,0.6L58.8,56c0-0.2,0-0.4,0.2-0.6l0.9-0.9l-1.3-0.2c-0.2,0-0.3-0.1-0.4-0.3l-0.6-1.2L57,54
	c-0.1,0.2-0.2,0.3-0.4,0.3l-1.3,0.2l0.9,0.9c0.2,0.1,0.2,0.4,0.2,0.6l-0.2,1.3l1.1-0.6C57.4,56.6,57.5,56.6,57.6,56.6L57.6,56.6z
	 M72.8,59.1c-0.1,0-0.2,0-0.3-0.1l-2-1l-2,1c-0.2,0.1-0.5,0.1-0.7-0.1c-0.2-0.1-0.3-0.4-0.3-0.6l0.4-2.2l-1.6-1.6
	c-0.2-0.2-0.2-0.4-0.2-0.7c0.1-0.2,0.3-0.4,0.5-0.4l2.2-0.3l1-2c0.2-0.3,0.6-0.4,0.9-0.2c0.1,0.1,0.2,0.1,0.2,0.2l1,2l2.2,0.3
	c0.2,0,0.4,0.2,0.5,0.4s0,0.5-0.2,0.7l-1.6,1.6l0.4,2.2C73.3,58.6,73,59,72.8,59.1C72.9,59,72.8,59.1,72.8,59.1L72.8,59.1z
	 M70.5,56.6c0.1,0,0.2,0,0.3,0.1l1.1,0.6L71.7,56c0-0.2,0-0.4,0.2-0.6l0.9-0.9l-1.3-0.2c-0.2,0-0.4-0.2-0.5-0.4l-0.5-1.1L70,54
	c-0.1,0.2-0.3,0.3-0.5,0.4l-1.3,0.2l0.9,0.9c0.2,0.1,0.2,0.4,0.2,0.6l-0.2,1.3l1.1-0.6C70.3,56.6,70.4,56.6,70.5,56.6L70.5,56.6z
	 M64,77c-8.6,0-15.5-6.9-15.5-15.5S55.4,46,64,46s15.5,6.9,15.5,15.5S72.5,77,64,77z M64,47.3c-7.9,0-14.2,6.4-14.2,14.2
	S56.2,75.7,64,75.7s14.2-6.4,14.2-14.2l0,0C78.2,53.7,71.8,47.3,64,47.3z M64,73.1c-6.4,0-11.6-5.2-11.6-11.6c0-0.4,0.3-0.6,0.7-0.6
	c0.3,0,0.6,0.3,0.6,0.6c-0.1,5.7,4.5,10.4,10.2,10.4s10.4-4.5,10.4-10.2c0-0.1,0-0.1,0-0.2c0-0.4,0.3-0.6,0.6-0.6
	c0.4,0,0.6,0.3,0.6,0.6C75.6,67.9,70.4,73.1,64,73.1z"/>
<g>
	<path class="st0" d="M42.1,92.6h4.4c-0.2-1.8-1.3-3.3-3.2-3.3c-0.8,0-1.4,0.2-2,0.5l-0.3-0.9c0.7-0.3,1.5-0.5,2.4-0.5
		c3,0,4.5,2.1,4.5,4.9c0,3.1-2,4.9-4.6,4.9c-0.9,0-1.8-0.2-2.5-0.5l0.3-1c0.5,0.3,1.3,0.4,2,0.4c2.1,0,3.3-1.5,3.4-3.5h-4.4V92.6z"
		/>
	<path class="st0" d="M49.5,91.1H51l1.2,3.4c0.2,0.5,0.5,1.3,0.6,1.9h0c0.2-0.5,0.5-1.6,0.8-2.3l1.1-3h1.5l0.5,6.8h-1.2l-0.2-3.2
		c0-0.7-0.1-1.6-0.1-2.4h0c-0.2,0.6-0.4,1.2-0.7,2.2l-1.3,3.4h-0.9l-1.2-3.3c-0.2-0.6-0.5-1.6-0.7-2.3h-0.1c0,0.8-0.1,1.7-0.1,2.4
		l-0.2,3.2H49L49.5,91.1z"/>
	<path class="st0" d="M64.5,94.5c0,2.5-1.7,3.6-3.4,3.6c-1.8,0-3.3-1.3-3.3-3.5c0-2.3,1.5-3.6,3.4-3.6C63.2,91,64.5,92.4,64.5,94.5z
		 M59.1,94.5c0,1.5,0.9,2.6,2.1,2.6c1.2,0,2.1-1.1,2.1-2.6c0-1.1-0.6-2.6-2-2.6C59.7,91.9,59.1,93.3,59.1,94.5z"/>
	<path class="st0" d="M67.2,91.1V97h3.1v-5.8h1.2V97l0.7,0l-0.1,3.1h-1l-0.1-2.2H66v-6.8H67.2z"/>
	<path class="st0" d="M74.9,91.1V94c0,1.1,0,1.8-0.1,2.7l0,0c0.4-0.8,0.6-1.3,1.1-2.1l2.1-3.5h1.4v6.8h-1.2v-2.9
		c0-1.1,0-1.7,0.1-2.8h0c-0.4,0.9-0.7,1.4-1.1,2.1c-0.6,1.1-1.4,2.4-2.1,3.5h-1.4v-6.8H74.9z"/>
	<path class="st0" d="M82.6,91.1V94c0,1.1,0,1.8-0.1,2.7l0,0c0.4-0.8,0.6-1.3,1.1-2.1l2.1-3.5h1.4v6.8h-1.2v-2.9
		c0-1.1,0-1.7,0.1-2.8h0c-0.4,0.9-0.7,1.4-1.1,2.1c-0.6,1.1-1.4,2.4-2.1,3.5h-1.4v-6.8H82.6z"/>
</g>
</svg>
