<?xml version="1.0" encoding="utf-8"?>
<!-- Generator: Adobe Illustrator 19.2.1, SVG Export Plug-In . SVG Version: 6.00 Build 0)  -->
<svg version="1.1" id="Layer_1" xmlns="http://www.w3.org/2000/svg" xmlns:xlink="http://www.w3.org/1999/xlink" x="0px" y="0px"
	 viewBox="0 0 31 31" style="enable-background:new 0 0 31 31;" xml:space="preserve">
<style type="text/css">
	.st0{fill:#FFFFFF;}
</style>
<path class="st0" d="M11.4,13.1c-0.1,0-0.2,0-0.3-0.1l-2-1l-2,1c-0.2,0.1-0.5,0.1-0.7-0.1c-0.2-0.1-0.3-0.4-0.3-0.6l0.4-2.2L5,8.5
	C4.8,8.4,4.7,8.1,4.8,7.9c0.1-0.2,0.3-0.4,0.5-0.4l2.2-0.3l1-2c0.2-0.3,0.6-0.4,0.9-0.2C9.5,4.9,9.6,5,9.7,5.1l1,2l2.2,0.3
	c0.2,0,0.4,0.2,0.5,0.4c0.1,0.2,0,0.5-0.2,0.7l-1.6,1.6l0.4,2.2c0.1,0.3-0.2,0.7-0.5,0.7C11.5,13,11.4,13.1,11.4,13.1z M9.1,10.6
	c0.1,0,0.2,0,0.3,0.1l1.1,0.6L10.3,10c0-0.2,0-0.4,0.2-0.6l0.9-0.9l-1.3-0.2C9.9,8.3,9.8,8.2,9.7,8L9.1,6.8L8.5,8
	C8.4,8.2,8.3,8.3,8.1,8.3L6.8,8.5l0.9,0.9C7.9,9.5,7.9,9.8,7.9,10l-0.2,1.3l1.1-0.6C8.9,10.6,9,10.6,9.1,10.6L9.1,10.6z M24.3,13.1
	c-0.1,0-0.2,0-0.3-0.1l-2-1l-2,1c-0.2,0.1-0.5,0.1-0.7-0.1c-0.2-0.1-0.3-0.4-0.3-0.6l0.4-2.2l-1.6-1.6c-0.2-0.2-0.2-0.4-0.2-0.7
	c0.1-0.2,0.3-0.4,0.5-0.4l2.2-0.3l1-2c0.2-0.3,0.6-0.4,0.9-0.2c0.1,0.1,0.2,0.1,0.2,0.2l1,2l2.2,0.3c0.2,0,0.4,0.2,0.5,0.4
	c0.1,0.2,0,0.5-0.2,0.7l-1.6,1.6l0.4,2.2c0.1,0.3-0.2,0.7-0.5,0.7C24.4,13,24.3,13.1,24.3,13.1L24.3,13.1z M22,10.6
	c0.1,0,0.2,0,0.3,0.1l1.1,0.6L23.2,10c0-0.2,0-0.4,0.2-0.6l0.9-0.9l-1.3-0.2c-0.2,0-0.4-0.2-0.5-0.4L22,6.8L21.5,8
	c-0.1,0.2-0.3,0.3-0.5,0.4l-1.3,0.2l0.9,0.9c0.2,0.1,0.2,0.4,0.2,0.6l-0.2,1.3l1.1-0.6C21.8,10.6,21.9,10.6,22,10.6L22,10.6z
	 M15.5,31C6.9,31,0,24.1,0,15.5S6.9,0,15.5,0S31,6.9,31,15.5C31,24.1,24,31,15.5,31z M15.5,1.3C7.6,1.3,1.3,7.7,1.3,15.5
	s6.4,14.2,14.2,14.2c7.8,0,14.2-6.4,14.2-14.2c0,0,0,0,0,0C29.7,7.7,23.3,1.3,15.5,1.3z M15.5,27.1c-6.4,0-11.6-5.2-11.6-11.6
	c0-0.4,0.3-0.6,0.7-0.6c0.3,0,0.6,0.3,0.6,0.6c-0.1,5.7,4.5,10.4,10.2,10.4s10.4-4.5,10.4-10.2c0-0.1,0-0.1,0-0.2
	c0-0.4,0.3-0.6,0.6-0.6c0.4,0,0.6,0.3,0.6,0.6C27.1,21.9,21.9,27.1,15.5,27.1z"/>
</svg>
