<svg xmlns="http://www.w3.org/2000/svg" width="31" height="31" viewBox="0 0 31 31">
  <defs>
    <style>
      .cls-1 {
        fill: #ccc;
        fill-rule: evenodd;
      }
    </style>
  </defs>
  <path class="cls-1" d="M767.379,1081.05a0.636,0.636,0,0,1-.3-0.07l-1.979-1.04-1.979,1.04a0.666,0.666,0,0,1-.68-0.05,0.657,0.657,0,0,1-.257-0.64l0.378-2.2-1.6-1.56a0.646,0.646,0,0,1-.164-0.66,0.63,0.63,0,0,1,.522-0.44l2.213-.32,0.989-2.01a0.673,0.673,0,0,1,1.158,0l0.989,2.01,2.213,0.32a0.628,0.628,0,0,1,.521.44,0.643,0.643,0,0,1-.163.66l-1.6,1.56,0.378,2.2A0.642,0.642,0,0,1,767.379,1081.05Zm-2.279-2.49a0.633,0.633,0,0,1,.3.07l1.122,0.59-0.214-1.25a0.644,0.644,0,0,1,.185-0.57l0.907-.88-1.253-.18a0.654,0.654,0,0,1-.487-0.36l-0.56-1.13-0.561,1.13a0.652,0.652,0,0,1-.486.36l-1.253.18,0.906,0.88a0.644,0.644,0,0,1,.186.57l-0.214,1.25,1.122-.59A0.63,0.63,0,0,1,765.1,1078.56Zm15.194,2.49a0.63,0.63,0,0,1-.3-0.07l-1.98-1.04-1.979,1.04a0.666,0.666,0,0,1-.68-0.05,0.659,0.659,0,0,1-.257-0.64l0.378-2.2-1.6-1.56a0.643,0.643,0,0,1-.163-0.66,0.628,0.628,0,0,1,.521-0.44l2.213-.32,0.989-2.01a0.673,0.673,0,0,1,1.158,0l0.989,2.01,2.213,0.32a0.631,0.631,0,0,1,.522.44,0.646,0.646,0,0,1-.164.66l-1.6,1.56,0.378,2.2A0.642,0.642,0,0,1,780.294,1081.05Zm-2.28-2.49a0.63,0.63,0,0,1,.3.07l1.122,0.59-0.214-1.25a0.644,0.644,0,0,1,.186-0.57l0.906-.88-1.253-.18a0.652,0.652,0,0,1-.486-0.36l-0.561-1.13-0.56,1.13a0.654,0.654,0,0,1-.487.36l-1.253.18,0.907,0.88a0.644,0.644,0,0,1,.185.57l-0.214,1.25,1.122-.59A0.633,0.633,0,0,1,778.014,1078.56ZM771.491,1099a15.5,15.5,0,1,1,15.5-15.5A15.514,15.514,0,0,1,771.491,1099Zm0-29.71A14.21,14.21,0,1,0,785.7,1083.5,14.228,14.228,0,0,0,771.491,1069.29Zm0,25.84a11.641,11.641,0,0,1-11.623-11.63,0.646,0.646,0,0,1,1.291,0,10.332,10.332,0,1,0,20.663,0,0.646,0.646,0,0,1,1.292,0A11.642,11.642,0,0,1,771.491,1095.13Z" transform="translate(-756 -1068)"/>
</svg>
