<svg xmlns="http://www.w3.org/2000/svg" width="30.998" height="30.294" viewBox="0 0 48 46.91">
  <defs>
    <style>
      .cls-1 {
        fill: #fff;
        fill-rule: evenodd;
      }
    </style>
  </defs>
  <path id="Shape_7_copy_5" data-name="Shape 7 copy 5" class="cls-1" d="M549.92,1099a8,8,0,0,1-8,8H509.911a8,8,0,0,1-8-8v-24a8,8,0,0,1,8-8h32.007a8,8,0,0,1,8,8v24Zm-2-24a6,6,0,0,0-6-6H509.911a6,6,0,0,0-6,6v24a6,6,0,0,0,6,6h32.007a6,6,0,0,0,6-6v-24Zm0.232,22h-6.043a9,9,0,1,1,0-18h6.043a1,1,0,0,1,0,2h-6.043a7,7,0,1,0,0,14h6.043A1,1,0,0,1,548.151,1097Zm-7.043-5.92a3,3,0,1,1,3-3A3.006,3.006,0,0,1,541.108,1091.08Zm0-4a1,1,0,1,0,1,1A1,1,0,0,0,541.108,1087.08Zm-31.2-12.08h-4v-2h4v2Zm6,0h-4v-2h4v2Zm6,0h-4v-2h4v2Zm6,0h-4v-2h4v2Zm6,0h-4v-2h4v2Zm6,0h-4v-2h4v2Zm6,0h-4v-2h4v2Zm-36.008,26h-4v-2h4v2Zm6,0h-4v-2h4v2Zm6,0h-4v-2h4v2Zm6,0h-4v-2h4v2Zm6,0h-4v-2h4v2Zm6,0h-4v-2h4v2Zm6,0h-4v-2h4v2Zm-36.2-31.95-0.483-1.94,27.687-6.89a4.6,4.6,0,0,1,5.69,3.89l0.489,3.84-1.985.25-0.488-3.84a2.6,2.6,0,0,0-3.223-2.2Z" transform="translate(-501.906 -1060.09)"/>
</svg>
