<?xml version="1.0" encoding="utf-8"?>
<!-- Generator: Adobe Illustrator 19.2.1, SVG Export Plug-In . SVG Version: 6.00 Build 0)  -->
<svg version="1.1" id="Layer_1" xmlns="http://www.w3.org/2000/svg" xmlns:xlink="http://www.w3.org/1999/xlink" x="0px" y="0px"
	 viewBox="0 0 128 133" style="enable-background:new 0 0 128 133;" xml:space="preserve">
<style type="text/css">
	.st0{fill:#FFFFFF;}
</style>
<image style="overflow:visible;" width="128" height="133" xlink:href="splat.png" >
</image>
<path id="Shape_7_copy_5" class="st0" d="M79.5,71.4c0,2.9-2.3,5.2-5.2,5.2H53.7c-2.9,0-5.2-2.3-5.2-5.2V56c0-2.9,2.3-5.2,5.2-5.2
	h20.7c2.9,0,5.2,2.3,5.2,5.2L79.5,71.4L79.5,71.4z M78.2,56c0-2.1-1.7-3.9-3.9-3.9H53.7c-2.2,0.1-3.9,1.8-3.9,3.9v15.5
	c0,2.2,1.7,3.9,3.9,3.9h20.7c2.1,0,3.9-1.7,3.9-3.9L78.2,56L78.2,56z M78.4,70.2h-3.9c-3.2,0-5.8-2.6-5.8-5.8c0-3.2,2.6-5.8,5.8-5.8
	h3.9c0.4,0,0.6,0.3,0.6,0.6c0,0.4-0.3,0.6-0.6,0.6h-3.9c-2.5,0-4.5,2-4.5,4.5s2,4.5,4.5,4.5h3.9c0.4,0,0.6,0.3,0.6,0.6
	C79,69.8,78.7,70.2,78.4,70.2L78.4,70.2z M73.8,66.3c-1.1,0-1.9-0.9-1.9-1.9c0-1.1,0.9-1.9,1.9-1.9c1.1,0,1.9,0.9,1.9,1.9
	C75.8,65.4,74.9,66.3,73.8,66.3L73.8,66.3z M73.8,63.8c-0.4,0-0.6,0.3-0.6,0.6c0,0.3,0.3,0.6,0.6,0.6c0.4,0,0.6-0.3,0.6-0.6
	C74.4,64.1,74.2,63.8,73.8,63.8L73.8,63.8L73.8,63.8z M53.7,56h-2.6v-1.3h2.6V56z M57.5,56H55v-1.3h2.5V56z M61.4,56h-2.6v-1.3h2.6
	V56z M65.3,56h-2.6v-1.3h2.6V56z M69.2,56h-2.6v-1.3h2.6V56z M73,56h-2.5v-1.3h2.6L73,56L73,56z M76.9,56h-2.6v-1.3h2.6V56z
	 M53.7,72.8h-2.6v-1.3h2.6V72.8z M57.5,72.8H55v-1.3h2.5V72.8z M61.4,72.8h-2.6v-1.3h2.6V72.8z M65.3,72.8h-2.6v-1.3h2.6V72.8z
	 M69.2,72.8h-2.6v-1.3h2.6V72.8z M73,72.8h-2.5v-1.3h2.6L73,72.8L73,72.8z M76.9,72.8h-2.6v-1.3h2.6V72.8z M53.5,52.2l-0.3-1.3
	l17.9-4.4c1.6-0.4,3.2,0.6,3.6,2.2c0,0.1,0.1,0.2,0.1,0.4l0.3,2.5l-1.3,0.2l-0.3-2.6c-0.1-0.9-1-1.6-1.9-1.5c-0.1,0-0.1,0-0.2,0
	L53.5,52.2z"/>
</svg>
