<?xml version="1.0" encoding="utf-8"?>
<!-- Generator: Adobe Illustrator 19.2.1, SVG Export Plug-In . SVG Version: 6.00 Build 0)  -->
<svg version="1.1" id="Layer_1" xmlns="http://www.w3.org/2000/svg" xmlns:xlink="http://www.w3.org/1999/xlink" x="0px" y="0px"
	 viewBox="0 0 31 30.3" style="enable-background:new 0 0 31 30.3;" xml:space="preserve">
<style type="text/css">
	.st0{fill:#CCCCCC;}
</style>
<path id="Shape_7_copy_5" class="st0" d="M31,25.1c0,2.9-2.3,5.2-5.2,5.2H5.2C2.3,30.3,0,28,0,25.1V9.6c0-2.9,2.3-5.2,5.2-5.2h20.7
	c2.9,0,5.2,2.3,5.2,5.2L31,25.1L31,25.1z M29.7,9.6c0-2.1-1.7-3.9-3.9-3.9H5.2C3,5.8,1.3,7.5,1.3,9.6v15.5C1.3,27.3,3,29,5.2,29
	h20.7c2.1,0,3.9-1.7,3.9-3.9L29.7,9.6L29.7,9.6z M29.9,23.8H26c-3.2,0-5.8-2.6-5.8-5.8s2.6-5.8,5.8-5.8h3.9c0.4,0,0.6,0.3,0.6,0.6
	c0,0.4-0.3,0.6-0.6,0.6H26c-2.5,0-4.5,2-4.5,4.5s2,4.5,4.5,4.5h3.9c0.4,0,0.6,0.3,0.6,0.6C30.5,23.5,30.2,23.8,29.9,23.8L29.9,23.8z
	 M25.3,20c-1.1,0-1.9-0.9-1.9-1.9c0-1.1,0.9-1.9,1.9-1.9c1.1,0,1.9,0.9,1.9,1.9C27.3,19.1,26.4,20,25.3,20L25.3,20z M25.3,17.4
	c-0.4,0-0.6,0.3-0.6,0.6s0.3,0.6,0.6,0.6c0.4,0,0.6-0.3,0.6-0.6S25.7,17.4,25.3,17.4C25.3,17.4,25.3,17.4,25.3,17.4L25.3,17.4z
	 M5.2,9.6H2.6V8.3h2.6V9.6z M9,9.6H6.5V8.3H9V9.6z M12.9,9.6h-2.6V8.3h2.6V9.6z M16.8,9.6h-2.6V8.3h2.6V9.6z M20.7,9.6h-2.6V8.3h2.6
	V9.6z M24.5,9.6H22V8.3h2.6V9.6z M28.4,9.6h-2.6V8.3h2.6V9.6z M5.2,26.4H2.6v-1.3h2.6V26.4z M9,26.4H6.5v-1.3H9V26.4z M12.9,26.4
	h-2.6v-1.3h2.6V26.4z M16.8,26.4h-2.6v-1.3h2.6V26.4z M20.7,26.4h-2.6v-1.3h2.6V26.4z M24.5,26.4H22v-1.3h2.6V26.4z M28.4,26.4h-2.6
	v-1.3h2.6V26.4z M5,5.8L4.7,4.5l17.9-4.4c1.6-0.4,3.2,0.6,3.6,2.2c0,0.1,0.1,0.2,0.1,0.4l0.3,2.5l-1.3,0.2L25,2.8
	c-0.1-0.9-1-1.6-1.9-1.5c-0.1,0-0.1,0-0.2,0L5,5.8z"/>
</svg>
