<?xml version="1.0" encoding="utf-8"?>
<!-- Generator: Adobe Illustrator 19.2.1, SVG Export Plug-In . SVG Version: 6.00 Build 0)  -->
<svg version="1.1" id="Layer_1" xmlns="http://www.w3.org/2000/svg" xmlns:xlink="http://www.w3.org/1999/xlink" x="0px" y="0px"
	 viewBox="0 0 128 133" style="enable-background:new 0 0 128 133;" xml:space="preserve">
<style type="text/css">
	.st0{fill:#FFFFFF;}
</style>
<image style="overflow:visible;enable-background:new    ;" width="128" height="133" xlink:href="splat.png" >
</image>
<path id="Shape_7_copy_5" class="st0" d="M79.5,71.4c0,2.9-2.3,5.2-5.2,5.2H53.7c-2.9,0-5.2-2.3-5.2-5.2V56c0-2.9,2.3-5.2,5.2-5.2
	h20.7c2.9,0,5.2,2.3,5.2,5.2L79.5,71.4L79.5,71.4z M78.2,56c0-2.1-1.7-3.9-3.9-3.9H53.7c-2.2,0.1-3.9,1.8-3.9,3.9v15.5
	c0,2.2,1.7,3.9,3.9,3.9h20.7c2.1,0,3.9-1.7,3.9-3.9L78.2,56L78.2,56z M78.4,70.2h-3.9c-3.2,0-5.8-2.6-5.8-5.8c0-3.2,2.6-5.8,5.8-5.8
	h3.9c0.4,0,0.6,0.3,0.6,0.6c0,0.4-0.3,0.6-0.6,0.6h-3.9c-2.5,0-4.5,2-4.5,4.5c0,2.5,2,4.5,4.5,4.5h3.9c0.4,0,0.6,0.3,0.6,0.6
	C79,69.8,78.7,70.2,78.4,70.2L78.4,70.2z M73.8,66.3c-1.1,0-1.9-0.9-1.9-1.9c0-1.1,0.9-1.9,1.9-1.9c1.1,0,1.9,0.9,1.9,1.9
	C75.8,65.4,74.9,66.3,73.8,66.3L73.8,66.3z M73.8,63.8c-0.4,0-0.6,0.3-0.6,0.6s0.3,0.6,0.6,0.6c0.4,0,0.6-0.3,0.6-0.6
	C74.4,64.1,74.2,63.8,73.8,63.8L73.8,63.8L73.8,63.8z M53.7,56h-2.6v-1.3h2.6V56z M57.5,56H55v-1.3h2.5V56z M61.4,56h-2.6v-1.3h2.6
	V56z M65.3,56h-2.6v-1.3h2.6V56z M69.2,56h-2.6v-1.3h2.6V56z M73,56h-2.5v-1.3h2.6L73,56L73,56z M76.9,56h-2.6v-1.3h2.6V56z
	 M53.7,72.8h-2.6v-1.3h2.6V72.8z M57.5,72.8H55v-1.3h2.5V72.8z M61.4,72.8h-2.6v-1.3h2.6V72.8z M65.3,72.8h-2.6v-1.3h2.6V72.8z
	 M69.2,72.8h-2.6v-1.3h2.6V72.8z M73,72.8h-2.5v-1.3h2.6L73,72.8L73,72.8z M76.9,72.8h-2.6v-1.3h2.6V72.8z M53.5,52.2l-0.3-1.3
	l17.9-4.4c1.6-0.4,3.2,0.6,3.6,2.2c0,0.1,0.1,0.2,0.1,0.4l0.3,2.5l-1.3,0.2l-0.3-2.6c-0.1-0.9-1-1.6-1.9-1.5c-0.1,0-0.1,0-0.2,0
	L53.5,52.2z"/>
<g>
	<path class="st0" d="M42.2,85.8v0.8c2,0.1,4,1.3,4,4.3c0,3-2,4.1-4,4.2V96H41v-0.9c-2-0.1-4-1.2-4-4.2c0-3.1,2.2-4.2,4-4.3v-0.8
		H42.2z M41,87.5c-1.2,0.1-2.7,0.9-2.7,3.4c0,2.3,1.3,3.2,2.7,3.3V87.5z M42.1,94.2c1.4-0.1,2.7-1,2.7-3.4c0-2.4-1.4-3.3-2.7-3.4
		V94.2z"/>
	<path class="st0" d="M48.8,88.8v2.9c0,1.1,0,1.8-0.1,2.7l0,0c0.4-0.8,0.6-1.3,1.1-2.1l2.1-3.5h1.4v6.8h-1.2v-2.9
		c0-1.1,0-1.7,0.1-2.8h0c-0.4,0.9-0.7,1.4-1.1,2.1c-0.6,1.1-1.4,2.4-2.1,3.5h-1.4v-6.8H48.8z"/>
	<path class="st0" d="M56.6,88.8v2.7h3.2v-2.7H61v6.8h-1.2v-3.1h-3.2v3.1h-1.2v-6.8H56.6z"/>
	<path class="st0" d="M66.8,95.6l-0.1-0.9h0c-0.4,0.5-1.1,1-2.1,1c-1.4,0-2.1-1-2.1-1.9c0-1.6,1.5-2.5,4.1-2.5v-0.1
		c0-0.6-0.2-1.6-1.5-1.6c-0.6,0-1.3,0.2-1.8,0.5L63,89.3c0.6-0.4,1.4-0.6,2.2-0.6c2.1,0,2.6,1.4,2.6,2.8V94c0,0.6,0,1.2,0.1,1.6
		H66.8z M66.6,92.2c-1.3,0-2.9,0.2-2.9,1.5c0,0.8,0.5,1.2,1.2,1.2c0.9,0,1.4-0.6,1.6-1.1c0-0.1,0.1-0.3,0.1-0.4V92.2z"/>
	<path class="st0" d="M71,88.8v2.7h3.2v-2.7h1.2v6.8h-1.2v-3.1H71v3.1h-1.2v-6.8H71z"/>
	<path class="st0" d="M82.3,95.4c-0.3,0.2-1,0.4-1.9,0.4c-2,0-3.4-1.4-3.4-3.5c0-2.1,1.4-3.6,3.6-3.6c0.7,0,1.4,0.2,1.7,0.4L82,90
		c-0.3-0.2-0.8-0.3-1.4-0.3c-1.6,0-2.4,1.1-2.4,2.6c0,1.6,1,2.5,2.4,2.5c0.7,0,1.2-0.2,1.5-0.3L82.3,95.4z"/>
	<path class="st0" d="M84.9,88.8v2.3c0.3-0.1,0.7-0.1,1.1-0.1c1.5,0,2.9,0.6,2.9,2.3c0,0.7-0.3,1.2-0.7,1.6
		c-0.7,0.6-1.8,0.8-2.7,0.8c-0.7,0-1.3,0-1.8-0.1v-6.8H84.9z M84.9,94.8c0.2,0,0.5,0.1,0.9,0.1c0.9,0,2-0.4,2-1.4
		c0-1.1-1-1.4-1.9-1.4c-0.4,0-0.7,0-0.9,0.1V94.8z M91,88.8v6.8h-1.2v-6.8H91z"/>
</g>
</svg>
