<?xml version="1.0" encoding="utf-8"?>
<!-- Generator: Adobe Illustrator 19.2.1, SVG Export Plug-In . SVG Version: 6.00 Build 0)  -->
<svg version="1.1" id="Layer_1" xmlns="http://www.w3.org/2000/svg" xmlns:xlink="http://www.w3.org/1999/xlink" x="0px" y="0px"
	 viewBox="0 0 28 31" style="enable-background:new 0 0 28 31;" xml:space="preserve">
<style type="text/css">
	.st0{fill:#FFFFFF;}
</style>
<path id="Shape_10_copy_6" class="st0" d="M28,12.8l-3.8-2c-0.3-0.1-0.6-0.1-0.8,0.2c-2.2-0.4-4.1-1.9-5-3.9c0-0.1-0.1-0.2-0.2-0.3
	c0.1-0.6,0-1.1-0.4-1.6c0,0,0,0,0-0.1C18,2.6,17.3,0.8,16.5,0h-2.6c-1,1-1.6,2.4-1.5,3.9c-0.6,0.3-1.2,0.7-1.5,1.3
	C9.7,4.5,8.5,3.7,7.4,2.9C6.9,2.5,6.4,2.1,6.1,2C5.6,1.6,5,1.6,4.4,1.8C4,2.1,3.6,2.6,3.5,3.1C2.9,3,2.3,3.3,2,3.8
	c-0.5,0.9-0.5,1.9,0,2.8C1.6,7,1.4,7.5,1.4,8c0,0.9,0.4,1.7,1,2.4c-0.8,1.9,0.2,3.7,3,5.4c-0.2,1.3-0.4,2.6-0.4,4
	c-0.1,0-0.2,0.1-0.3,0.2l-4.5,4.8C0.1,24.8,0,24.9,0,25v0.4c0,0.1,0.1,0.3,0.3,0.3L8.9,31c0,0,0,0,0.1,0h0.5
	c0.1-0.1,0.2-0.2,0.3-0.3l2.9-5.6c0.1-0.3,0.1-0.6-0.1-0.8c0,0,0.1-0.1,0.1-0.1c0.6-0.7,1.3-1.4,2.2-1.9c0.7-0.5,1.4-1,2-1.6
	c0.2-0.2,0.3-0.4,0.4-0.6l1.2,0.4c0,0.1,0.1,0.2,0.2,0.3l3.8,2.7c0.1,0.1,0.2,0.1,0.4,0.1c0.1,0,0.1,0,0.2,0c0.2,0,0.3-0.2,0.4-0.3
	l4.5-8.7L28,12.8L28,12.8z M14.8,1c0.1-0.1,0.3-0.2,0.5-0.2c0.4,0.2,1.1,1,1.2,2.7c-0.2-0.2-0.4-0.3-0.6-0.4c-0.4-0.2-1-0.3-1.4-0.1
	c-0.3,0.1-0.6,0.3-0.8,0.6C13.7,2.5,14.1,1.6,14.8,1z M3.4,11.4c0.2,0.2,0.4,0.3,0.6,0.5l0.3,0.2c0.3,0.2,0.7,0.2,0.9-0.1
	c0.2-0.3,0.2-0.7-0.1-0.9l-0.3-0.3c-0.4-0.3-0.9-0.8-1.2-1.1C3.1,9.4,2.8,8.8,2.7,8.1c0-0.2,0.1-0.4,0.2-0.5
	c0.5,0.4,1.1,0.8,1.6,1.2C4.8,9,5.2,9.3,5.3,9.4c0.1,0.1,0.3,0.1,0.4,0.1c0.2,0,0.4-0.1,0.5-0.3C6.4,9,6.4,8.6,6.1,8.4
	C6,8.3,5.6,8,5.2,7.7c-0.7-0.5-1.5-1.1-2-1.5C2.9,5.7,2.8,5.1,3,4.5c0-0.1,0.2-0.3,0.7-0.1c0.4,0.3,2.6,2.1,3.5,2.6
	C7.6,7.3,8,7.2,8.2,6.9C8.4,6.6,8.3,6.2,8,6C7.2,5.5,5.4,4.1,4.7,3.6C4.8,3.4,4.9,3.2,5,3c0.1,0,0.3,0,0.4,0.1
	c0.3,0.2,0.7,0.5,1.2,0.8c1.1,0.8,2.2,1.6,3.3,2.3C7.9,7.9,6,12.8,6,12.8c-0.2,0.5-0.3,1-0.4,1.6C3.8,13.2,3.4,12.2,3.4,11.4
	L3.4,11.4z M9,29.5l-7.3-4.4l3.6-3.8l6.1,3.9L9,29.5z M15.9,19.8c-0.6,0.5-1.2,1-1.8,1.5c-1,0.6-1.8,1.4-2.5,2.3c0,0,0,0.1,0,0.1
	l-5.3-3.4c0,0,0,0,0,0c0-2.4,0.4-4.7,1.1-7c0.6-1.5,1.3-3,2.1-4.4c-0.3,1.2-0.5,2.4-0.6,3.6c0,0.4,0.3,0.7,0.6,0.7
	c0.4,0,0.7-0.3,0.7-0.6c0,0,0,0,0-0.1c0.1-2,0.6-4,1.4-5.9l0.1-0.2c0.2-0.6,0.7-1,1.3-1.3c-0.6,1.8-1.8,5.2-2,6.1
	c-0.1,0.4,0.1,0.7,0.5,0.8c0.1,0,0.1,0,0.2,0c0.3,0,0.6-0.2,0.6-0.5c0.3-1.1,1.9-6,2.3-6.9c0.1-0.2,0.3-0.4,0.5-0.5
	c0.1,0,0.3,0,0.4,0.1c0.2,0.1,0.4,0.3,0.5,0.5c0,0-0.1,0.1-0.1,0.1c-1.1,2.3-1.9,4.8-2.5,7.3c-0.1,0.4,0.2,0.7,0.5,0.8c0,0,0,0,0,0
	c0,0,0.1,0,0.1,0c0.3,0,0.6-0.2,0.6-0.5c0.5-2.2,1.3-4.3,2.2-6.4h0c0,0,0.1,0,0.1,0.1c0.1,0.3,0.2,0.7,0,1c-0.4,1.7-1.4,7.3-1.4,7.6
	c-0.1,0.4,0.2,0.7,0.5,0.8c0.3,0.1,0.6-0.1,0.7-0.4c0.4-0.9,1-1.6,1.9-2.1c0.2-0.1,0.5,0,0.7,0.1c-0.1,0.6-0.4,1.2-0.8,1.7
	c-0.1,0.2-0.2,0.4-0.3,0.5c-0.3,0.5-0.5,1-0.6,1.5C17.1,17.8,16.6,18.9,15.9,19.8L15.9,19.8z M17.9,19c0.3-0.6,0.5-1.3,0.7-1.8
	c0.1-0.4,0.3-0.9,0.5-1.3c0.1-0.1,0.2-0.3,0.3-0.5c0.5-0.8,1.2-1.8,1-2.7c-0.1-0.4-0.3-0.7-0.6-0.9c-0.5-0.3-1.1-0.4-1.7-0.2
	c-0.4,0.1-0.7,0.3-1,0.5c0.2-1.1,0.4-2.4,0.6-3.4c1.2,1.7,3,2.9,5,3.4l-3.9,7.2L17.9,19z M22.6,22.1l-2.7-1.9l4.3-7.9l2.8,1.5
	L22.6,22.1z"/>
</svg>
