<?xml version="1.0" encoding="utf-8"?>
<!-- Generator: Adobe Illustrator 19.2.1, SVG Export Plug-In . SVG Version: 6.00 Build 0)  -->
<svg version="1.1" id="Layer_1" xmlns="http://www.w3.org/2000/svg" xmlns:xlink="http://www.w3.org/1999/xlink" x="0px" y="0px"
	 viewBox="0 0 128 133" style="enable-background:new 0 0 128 133;" xml:space="preserve">
<style type="text/css">
	.st0{fill:#FFFFFF;}
</style>
<image style="overflow:visible;" width="128" height="133" xlink:href="splat.png" >
</image>
<path id="Shape_10_copy_6" class="st0" d="M78,58.8l-3.8-2c-0.3-0.1-0.6-0.1-0.8,0.2c-2.2-0.4-4.1-1.9-5-3.9c0-0.1-0.1-0.2-0.2-0.3
	c0.1-0.6,0-1.1-0.4-1.6c0,0,0,0,0-0.1c0.2-2.5-0.5-4.3-1.3-5.1h-2.6c-1,1-1.6,2.4-1.5,3.9c-0.6,0.3-1.2,0.7-1.5,1.3
	c-1.2-0.7-2.4-1.5-3.5-2.3c-0.5-0.4-1-0.8-1.3-0.9c-0.5-0.4-1.1-0.4-1.7-0.2c-0.4,0.3-0.8,0.8-0.9,1.3c-0.6-0.1-1.2,0.2-1.5,0.7
	c-0.5,0.9-0.5,1.9,0,2.8c-0.4,0.4-0.6,0.9-0.6,1.4c0,0.9,0.4,1.7,1,2.4c-0.8,1.9,0.2,3.7,3,5.4c-0.2,1.3-0.4,2.6-0.4,4
	c-0.1,0-0.2,0.1-0.3,0.2l-4.5,4.8c-0.1,0-0.2,0.1-0.2,0.2v0.4c0,0.1,0.1,0.3,0.3,0.3l8.6,5.3c0,0,0,0,0.1,0h0.5
	c0.1-0.1,0.2-0.2,0.3-0.3l2.9-5.6c0.1-0.3,0.1-0.6-0.1-0.8l0.1-0.1c0.6-0.7,1.3-1.4,2.2-1.9c0.7-0.5,1.4-1,2-1.6
	c0.2-0.2,0.3-0.4,0.4-0.6l1.2,0.4c0,0.1,0.1,0.2,0.2,0.3l3.8,2.7c0.1,0.1,0.2,0.1,0.4,0.1c0.1,0,0.1,0,0.2,0c0.2,0,0.3-0.2,0.4-0.3
	l4.5-8.7V58.8L78,58.8z M64.8,47c0.1-0.1,0.3-0.2,0.5-0.2c0.4,0.2,1.1,1,1.2,2.7c-0.2-0.2-0.4-0.3-0.6-0.4c-0.4-0.2-1-0.3-1.4-0.1
	c-0.3,0.1-0.6,0.3-0.8,0.6C63.7,48.5,64.1,47.6,64.8,47z M53.4,57.4c0.2,0.2,0.4,0.3,0.6,0.5l0.3,0.2c0.3,0.2,0.7,0.2,0.9-0.1
	c0.2-0.3,0.2-0.7-0.1-0.9l-0.3-0.3c-0.4-0.3-0.9-0.8-1.2-1.1c-0.5-0.3-0.8-0.9-0.9-1.6c0-0.2,0.1-0.4,0.2-0.5
	c0.5,0.4,1.1,0.8,1.6,1.2c0.3,0.2,0.7,0.5,0.8,0.6c0.1,0.1,0.3,0.1,0.4,0.1c0.2,0,0.4-0.1,0.5-0.3c0.2-0.2,0.2-0.6-0.1-0.8
	c-0.1-0.1-0.5-0.4-0.9-0.7c-0.7-0.5-1.5-1.1-2-1.5c-0.3-0.5-0.4-1.1-0.2-1.7c0-0.1,0.2-0.3,0.7-0.1c0.4,0.3,2.6,2.1,3.5,2.6
	c0.4,0.3,0.8,0.2,1-0.1c0.2-0.3,0.1-0.7-0.2-0.9c-0.8-0.5-2.6-1.9-3.3-2.4c0.1-0.2,0.2-0.4,0.3-0.6c0.1,0,0.3,0,0.4,0.1
	c0.3,0.2,0.7,0.5,1.2,0.8c1.1,0.8,2.2,1.6,3.3,2.3c-2,1.7-3.9,6.6-3.9,6.6c-0.2,0.5-0.3,1-0.4,1.6C53.8,59.2,53.4,58.2,53.4,57.4
	L53.4,57.4z M59,75.5l-7.3-4.4l3.6-3.8l6.1,3.9L59,75.5z M65.9,65.8c-0.6,0.5-1.2,1-1.8,1.5c-1,0.6-1.8,1.4-2.5,2.3v0.1l-5.3-3.4
	l0,0c0-2.4,0.4-4.7,1.1-7c0.6-1.5,1.3-3,2.1-4.4c-0.3,1.2-0.5,2.4-0.6,3.6c0,0.4,0.3,0.7,0.6,0.7c0.4,0,0.7-0.3,0.7-0.6
	c0,0,0,0,0-0.1c0.1-2,0.6-4,1.4-5.9l0.1-0.2c0.2-0.6,0.7-1,1.3-1.3c-0.6,1.8-1.8,5.2-2,6.1c-0.1,0.4,0.1,0.7,0.5,0.8
	c0.1,0,0.1,0,0.2,0c0.3,0,0.6-0.2,0.6-0.5c0.3-1.1,1.9-6,2.3-6.9c0.1-0.2,0.3-0.4,0.5-0.5c0.1,0,0.3,0,0.4,0.1
	c0.2,0.1,0.4,0.3,0.5,0.5l-0.1,0.1c-1.1,2.3-1.9,4.8-2.5,7.3c-0.1,0.4,0.2,0.7,0.5,0.8l0,0H64c0.3,0,0.6-0.2,0.6-0.5
	c0.5-2.2,1.3-4.3,2.2-6.4l0,0c0,0,0.1,0,0.1,0.1c0.1,0.3,0.2,0.7,0,1c-0.4,1.7-1.4,7.3-1.4,7.6c-0.1,0.4,0.2,0.7,0.5,0.8
	c0.3,0.1,0.6-0.1,0.7-0.4c0.4-0.9,1-1.6,1.9-2.1c0.2-0.1,0.5,0,0.7,0.1c-0.1,0.6-0.4,1.2-0.8,1.7c-0.1,0.2-0.2,0.4-0.3,0.5
	c-0.3,0.5-0.5,1-0.6,1.5C67.1,63.8,66.6,64.9,65.9,65.8L65.9,65.8z M67.9,65c0.3-0.6,0.5-1.3,0.7-1.8c0.1-0.4,0.3-0.9,0.5-1.3
	c0.1-0.1,0.2-0.3,0.3-0.5c0.5-0.8,1.2-1.8,1-2.7c-0.1-0.4-0.3-0.7-0.6-0.9c-0.5-0.3-1.1-0.4-1.7-0.2c-0.4,0.1-0.7,0.3-1,0.5
	c0.2-1.1,0.4-2.4,0.6-3.4c1.2,1.7,3,2.9,5,3.4l-3.9,7.2L67.9,65z M72.6,68.1l-2.7-1.9l4.3-7.9l2.8,1.5L72.6,68.1z"/>
</svg>
