<svg xmlns="http://www.w3.org/2000/svg" width="28" height="31" viewBox="0 0 28 31">
  <defs>
    <style>
      .cls-1 {
        fill: #ccc;
        fill-rule: evenodd;
      }
    </style>
  </defs>
  <path id="Shape_10_copy_6" data-name="Shape 10 copy 6" class="cls-1" d="M905,1080.82l-3.777-2.01a0.643,0.643,0,0,0-.779.16,6.963,6.963,0,0,1-5.042-3.9,0.667,0.667,0,0,0-.235-0.3,2.225,2.225,0,0,0-.371-1.6,0.327,0.327,0,0,1,.014-0.05c0.221-2.52-.461-4.27-1.342-5.12h-2.6a5.144,5.144,0,0,0-1.5,3.89,3.165,3.165,0,0,0-1.5,1.29,34.4,34.4,0,0,1-3.467-2.32c-0.537-.4-0.978-0.72-1.266-0.9a1.669,1.669,0,0,0-1.728-.11,1.883,1.883,0,0,0-.884,1.23,1.642,1.642,0,0,0-1.573.73,2.915,2.915,0,0,0-.01,2.8,2.464,2.464,0,0,0-.551,1.43,3.559,3.559,0,0,0,.975,2.37c-0.761,1.88.232,3.68,2.95,5.36a30.838,30.838,0,0,0-.4,3.97,0.648,0.648,0,0,0-.307.18l-4.478,4.83a0.587,0.587,0,0,0-.125.21v0.45a0.653,0.653,0,0,0,.266.35l8.619,5.22c0.017,0.01.036,0.01,0.054,0.02h0.543a0.642,0.642,0,0,0,.313-0.28l2.873-5.56a0.659,0.659,0,0,0-.128-0.77,0.679,0.679,0,0,0,.108-0.13,8.977,8.977,0,0,1,2.17-1.89,15.679,15.679,0,0,0,2.008-1.63,4.171,4.171,0,0,0,.447-0.57l1.175,0.43a0.65,0.65,0,0,0,.228.31l3.831,2.71a0.7,0.7,0,0,0,.373.11,0.792,0.792,0,0,0,.153-0.01,0.676,0.676,0,0,0,.422-0.34l4.545-8.67v-1.89Zm-13.246-11.86a0.8,0.8,0,0,1,.527-0.23c0.381,0.16,1.057,1.03,1.223,2.7a2.6,2.6,0,0,0-.574-0.4,1.8,1.8,0,0,0-1.448-.11,1.9,1.9,0,0,0-.8.55A3.457,3.457,0,0,1,891.754,1068.96Zm-11.316,10.48c0.215,0.18.428,0.35,0.6,0.49l0.283,0.23a0.657,0.657,0,0,0,.917-0.08,0.665,0.665,0,0,0-.084-0.93l-0.307-.25c-0.369-.3-0.924-0.75-1.249-1.07a2.708,2.708,0,0,1-.912-1.73,1.124,1.124,0,0,1,.177-0.53c0.462,0.36,1.064.8,1.57,1.18,0.4,0.29.739,0.54,0.876,0.65a0.669,0.669,0,0,0,.4.14,0.645,0.645,0,0,0,.514-0.26,0.659,0.659,0,0,0-.113-0.92c-0.142-.11-0.491-0.37-0.911-0.68-0.681-.5-1.549-1.14-1.972-1.49a1.643,1.643,0,0,1-.2-1.65c0.044-.06.179-0.26,0.716-0.06,0.446,0.35,2.611,2.05,3.51,2.64a0.655,0.655,0,0,0,.712-1.1c-0.752-.5-2.531-1.88-3.222-2.42a0.845,0.845,0,0,1,.281-0.6,0.522,0.522,0,0,1,.431.09c0.268,0.16.675,0.46,1.173,0.83a38.108,38.108,0,0,0,3.289,2.25c-2.054,1.69-3.872,6.61-3.891,6.67a13.56,13.56,0,0,0-.446,1.55C880.776,1081.18,880.364,1080.2,880.438,1079.44Zm5.523,18.05-7.333-4.44,3.556-3.83,6.052,3.87Zm6.929-9.67a13.914,13.914,0,0,1-1.829,1.47,9.4,9.4,0,0,0-2.526,2.28,0.636,0.636,0,0,0-.042.12l-5.3-3.39s0,0,0-.01a24.332,24.332,0,0,1,1.059-7,25.211,25.211,0,0,1,2.116-4.39,14.777,14.777,0,0,0-.576,3.58,0.651,0.651,0,1,0,1.3,0,18.639,18.639,0,0,1,1.4-5.86l0.128-.21a2.513,2.513,0,0,1,1.255-1.29c-0.637,1.79-1.753,5.16-2,6.11a0.665,0.665,0,0,0,.46.81,0.985,0.985,0,0,0,.169.02,0.658,0.658,0,0,0,.628-0.49c0.295-1.11,1.915-5.96,2.3-6.88a1.033,1.033,0,0,1,.493-0.53,0.494,0.494,0,0,1,.428.05,0.893,0.893,0,0,1,.47.47,0.461,0.461,0,0,0-.078.1,39.129,39.129,0,0,0-2.541,7.25,0.657,0.657,0,0,0,.506.78,0.621,0.621,0,0,0,.132.02,0.659,0.659,0,0,0,.638-0.53,35.8,35.8,0,0,1,2.189-6.4H893.7a0.247,0.247,0,0,1,.079.08,1.344,1.344,0,0,1,.045,1c-0.379,1.7-1.359,7.31-1.4,7.55a0.651,0.651,0,0,0,1.223.41,4.429,4.429,0,0,1,1.877-2.05,0.733,0.733,0,0,1,.668.12,4.324,4.324,0,0,1-.812,1.67c-0.129.19-.247,0.37-0.338,0.52a10.105,10.105,0,0,0-.631,1.53A9.736,9.736,0,0,1,892.89,1087.82Zm2.026-.82c0.278-.61.51-1.25,0.717-1.82a9.879,9.879,0,0,1,.523-1.3c0.081-.13.187-0.29,0.3-0.47,0.535-.8,1.2-1.81,1-2.69a1.318,1.318,0,0,0-.634-0.86,2,2,0,0,0-1.661-.24,2.871,2.871,0,0,0-1,.54c0.2-1.11.433-2.39,0.63-3.41a8.717,8.717,0,0,0,4.966,3.42l-3.9,7.18Zm4.733,3.11-2.748-1.94,4.283-7.89,2.826,1.5Z" transform="translate(-877 -1068)"/>
</svg>
