<?xml version="1.0" encoding="utf-8"?>
<!-- Generator: Adobe Illustrator 19.2.1, SVG Export Plug-In . SVG Version: 6.00 Build 0)  -->
<svg version="1.1" id="Layer_1" xmlns="http://www.w3.org/2000/svg" xmlns:xlink="http://www.w3.org/1999/xlink" x="0px" y="0px"
	 viewBox="0 0 42.5 47" style="enable-background:new 0 0 42.5 47;" xml:space="preserve">
<style type="text/css">
	.st0{fill:#FFFFFF;}
</style>
<path id="Shape_10_copy_6" class="st0" d="M42.4,19.4l-5.7-3c-0.4-0.2-0.9-0.1-1.2,0.2c-3.4-0.6-6.2-2.8-7.6-5.9
	c-0.1-0.2-0.2-0.3-0.4-0.5c0.1-0.9-0.1-1.7-0.6-2.4c0,0,0-0.1,0-0.1c0.3-3.8-0.7-6.5-2-7.8H21c-1.6,1.6-2.4,3.7-2.3,5.9
	c-0.9,0.4-1.7,1.1-2.3,2c-1.8-1.1-3.6-2.2-5.3-3.5C10.4,3.7,9.7,3.2,9.3,3C8.5,2.4,7.5,2.4,6.7,2.8C6,3.2,5.5,3.9,5.3,4.7
	C4.4,4.6,3.5,5,3,5.8c-0.7,1.3-0.7,2.9,0,4.2c-0.5,0.6-0.8,1.4-0.8,2.2c0,1.3,0.6,2.6,1.5,3.6c-1.2,2.9,0.4,5.6,4.5,8.1
	c-0.3,2-0.5,4-0.6,6c-0.2,0-0.3,0.1-0.5,0.3l-6.8,7.3C0.1,37.6,0,37.7,0,37.8v0.7c0.1,0.2,0.2,0.4,0.4,0.5L13.5,47c0,0,0.1,0,0.1,0
	h0.8c0.2-0.1,0.4-0.2,0.5-0.4l4.4-8.4c0.2-0.4,0.1-0.9-0.2-1.2c0.1-0.1,0.1-0.1,0.2-0.2c0.9-1.1,2-2.1,3.3-2.9
	c1.1-0.7,2.1-1.6,3-2.5c0.3-0.3,0.5-0.6,0.7-0.9l1.8,0.7c0.1,0.2,0.2,0.4,0.3,0.5l5.8,4.1c0.2,0.1,0.4,0.2,0.6,0.2
	c0.1,0,0.2,0,0.2,0c0.3-0.1,0.5-0.3,0.6-0.5l6.9-13.1L42.4,19.4L42.4,19.4z M22.4,1.5c0.2-0.2,0.5-0.3,0.8-0.3
	c0.6,0.2,1.6,1.6,1.9,4.1c-0.3-0.2-0.6-0.4-0.9-0.6c-0.7-0.4-1.5-0.4-2.2-0.2c-0.5,0.2-0.9,0.5-1.2,0.8C20.7,3.8,21.3,2.4,22.4,1.5z
	 M5.2,17.3c0.3,0.3,0.6,0.5,0.9,0.7l0.4,0.3c0.4,0.3,1,0.3,1.4-0.1c0.4-0.4,0.3-1.1-0.1-1.4l-0.5-0.4c-0.6-0.5-1.4-1.1-1.9-1.6
	c-0.8-0.7-1.3-1.6-1.4-2.6c0-0.3,0.1-0.6,0.3-0.8C5,12,5.9,12.7,6.7,13.3c0.6,0.4,1.1,0.8,1.3,1c0.2,0.1,0.4,0.2,0.6,0.2
	c0.3,0,0.6-0.1,0.8-0.4c0.3-0.4,0.3-1.1-0.2-1.4c-0.2-0.2-0.7-0.6-1.4-1c-1-0.8-2.3-1.7-3-2.3C4.3,8.7,4.2,7.7,4.6,6.9
	c0.1-0.1,0.3-0.4,1.1-0.1c0.7,0.5,4,3.1,5.3,4c0.5,0.3,1.1,0.2,1.4-0.3c0.3-0.5,0.2-1.1-0.3-1.4c-1.1-0.8-3.8-2.9-4.9-3.7
	c0-0.3,0.2-0.7,0.4-0.9c0.2-0.1,0.5,0,0.7,0.1c0.4,0.2,1,0.7,1.8,1.3c1.6,1.2,3.3,2.4,5,3.4c-3.1,2.6-5.9,10-5.9,10.1
	c-0.3,0.8-0.5,1.6-0.7,2.4C5.7,20,5.1,18.5,5.2,17.3L5.2,17.3z M13.6,44.7L2.5,38l5.4-5.8L17,38L13.6,44.7z M24.1,30
	c-0.9,0.8-1.8,1.6-2.8,2.2c-1.5,0.9-2.8,2.1-3.8,3.5c0,0.1,0,0.1-0.1,0.2l-8-5.1c0,0,0,0,0,0c0-3.6,0.6-7.2,1.6-10.6
	c0.9-2.3,1.9-4.5,3.2-6.7c-0.5,1.8-0.8,3.6-0.9,5.4c0,0.5,0.4,1,0.9,1c0.5,0,1-0.4,1-0.9c0,0,0-0.1,0-0.1c0.2-3.1,0.9-6.1,2.1-8.9
	l0.2-0.3c0.4-0.9,1-1.6,1.9-2c-1,2.7-2.7,7.8-3,9.3c-0.1,0.5,0.2,1.1,0.7,1.2c0.1,0,0.2,0,0.3,0c0.4,0,0.8-0.3,1-0.7
	c0.4-1.7,2.9-9,3.5-10.4c0.1-0.3,0.4-0.6,0.7-0.8c0.2-0.1,0.5,0,0.6,0.1c0.3,0.1,0.6,0.4,0.7,0.7c0,0-0.1,0.1-0.1,0.2
	c-1.6,3.5-2.9,7.2-3.9,11c-0.1,0.5,0.2,1.1,0.8,1.2c0,0,0,0,0,0c0.1,0,0.1,0,0.2,0c0.5,0,0.9-0.3,1-0.8c0.8-3.3,1.9-6.6,3.3-9.7h0
	c0,0,0.1,0.1,0.1,0.1c0.2,0.5,0.2,1,0.1,1.5c-0.6,2.6-2.1,11.1-2.1,11.4c-0.1,0.5,0.3,1.1,0.8,1.2c0.4,0.1,0.9-0.1,1.1-0.5
	c0.6-1.3,1.6-2.4,2.8-3.1c0.3-0.1,0.7,0,1,0.2c-0.2,0.9-0.6,1.8-1.2,2.5c-0.2,0.3-0.4,0.6-0.5,0.8c-0.4,0.7-0.7,1.5-1,2.3
	C25.9,27.1,25.1,28.6,24.1,30L24.1,30z M27.2,28.8c0.4-0.9,0.8-1.9,1.1-2.8c0.2-0.7,0.5-1.3,0.8-2c0.1-0.2,0.3-0.4,0.5-0.7
	c0.8-1.2,1.8-2.7,1.5-4.1c-0.1-0.6-0.5-1-1-1.3c-0.7-0.5-1.7-0.6-2.5-0.4c-0.6,0.2-1.1,0.4-1.5,0.8c0.3-1.7,0.7-3.6,1-5.2
	c1.8,2.6,4.5,4.4,7.5,5.2l-5.9,10.9L27.2,28.8z M34.3,33.5l-4.2-2.9l6.5-12l4.3,2.3L34.3,33.5z"/>
</svg>
