<svg xmlns="http://www.w3.org/2000/svg" width="32" height="31" viewBox="0 0 32 31">
  <defs>
    <style>
      .cls-1 {
        fill: #ccc;
        fill-rule: evenodd;
      }
    </style>
  </defs>
  <path id="Shape_152_copy_16" data-name="Shape 152 copy 16" class="cls-1" d="M650,1099.01a0.76,0.76,0,0,1-.3-0.06c-11.31-4.83-17.677-14.53-15.138-23.05,1.429-4.8,5.213-7.9,9.641-7.9a9.8,9.8,0,0,1,5.793,1.96,9.789,9.789,0,0,1,5.792-1.96c4.428,0,8.212,3.1,9.64,7.9,2.539,8.52-3.827,18.22-15.136,23.05A0.764,0.764,0,0,1,650,1099.01Zm-5.793-29.49c-3.744,0-6.961,2.68-8.193,6.81-2.256,7.58,3.748,16.6,13.986,21.09,10.237-4.49,16.239-13.52,13.984-21.09-1.232-4.13-4.448-6.81-8.192-6.81a8.393,8.393,0,0,0-5.316,1.99,0.743,0.743,0,0,1-.952,0A8.4,8.4,0,0,0,644.207,1069.52Z" transform="translate(-634 -1068)"/>
</svg>
