<?xml version="1.0" encoding="utf-8"?>
<!-- Generator: Adobe Illustrator 19.2.1, SVG Export Plug-In . SVG Version: 6.00 Build 0)  -->
<svg version="1.1" id="Layer_1" xmlns="http://www.w3.org/2000/svg" xmlns:xlink="http://www.w3.org/1999/xlink" x="0px" y="0px"
	 viewBox="0 0 48.5 47" style="enable-background:new 0 0 48.5 47;" xml:space="preserve">
<style type="text/css">
	.st0{fill:#FFFFFF;}
</style>
<path id="Shape_152_copy_16" class="st0" d="M24.2,47c-0.2,0-0.3,0-0.5-0.1C6.6,39.6-3,24.9,0.8,12C3,4.7,8.7,0,15.5,0
	c3.2,0,6.2,1.1,8.8,3C26.8,1.1,29.8,0,33,0c6.7,0,12.4,4.7,14.6,12c3.8,12.9-5.8,27.6-22.9,34.9C24.5,47,24.4,47,24.2,47z M15.5,2.3
	C9.8,2.3,4.9,6.4,3,12.6c-3.4,11.5,5.7,25.2,21.2,32c15.5-6.8,24.6-20.5,21.2-32C43.6,6.4,38.7,2.3,33,2.3c-3,0-5.8,1.1-8.1,3
	c-0.4,0.3-1,0.3-1.4,0C21.3,3.4,18.4,2.3,15.5,2.3z"/>
</svg>
