<?xml version="1.0" encoding="utf-8"?>
<!-- Generator: Adobe Illustrator 19.2.1, SVG Export Plug-In . SVG Version: 6.00 Build 0)  -->
<svg version="1.1" id="Layer_1" xmlns="http://www.w3.org/2000/svg" xmlns:xlink="http://www.w3.org/1999/xlink" x="0px" y="0px"
	 viewBox="0 0 128 133" style="enable-background:new 0 0 128 133;" xml:space="preserve">
<style type="text/css">
	.st0{fill:#FFFFFF;}
</style>
<image style="overflow:visible;" width="128" height="133" xlink:href="splat.png" >
</image>
<path id="Shape_152_copy_16" class="st0" d="M64,77c-0.1,0-0.2,0-0.3-0.1c-11.3-4.8-17.7-14.5-15.1-23c1.4-4.8,5.2-7.9,9.6-7.9
	c2.1,0,4.1,0.7,5.8,2c1.7-1.3,3.7-1.9,5.8-2c4.4,0,8.2,3.1,9.6,7.9c2.5,8.5-3.8,18.2-15.1,23.1C64.2,77,64.1,77,64,77z M58.2,47.5
	c-3.7,0-7,2.7-8.2,6.8c-2.3,7.6,3.7,16.6,14,21.1c10.2-4.5,16.2-13.5,14-21.1c-1.2-4.1-4.4-6.8-8.2-6.8c-1.9,0-3.8,0.7-5.3,2
	c-0.3,0.2-0.7,0.2-1,0C62,48.2,60.2,47.5,58.2,47.5z"/>
</svg>
