<?xml version="1.0" encoding="utf-8"?>
<!-- Generator: Adobe Illustrator 19.2.1, SVG Export Plug-In . SVG Version: 6.00 Build 0)  -->
<svg version="1.1" id="Layer_1" xmlns="http://www.w3.org/2000/svg" xmlns:xlink="http://www.w3.org/1999/xlink" x="0px" y="0px"
	 viewBox="0 0 32 31" style="enable-background:new 0 0 32 31;" xml:space="preserve">
<style type="text/css">
	.st0{fill:#FFFFFF;}
</style>
<path id="Shape_152_copy_16" class="st0" d="M16,31c-0.1,0-0.2,0-0.3-0.1C4.4,26.1-2,16.4,0.6,7.9C2,3.1,5.8,0,10.2,0
	c2.1,0,4.1,0.7,5.8,2c1.7-1.3,3.7-1.9,5.8-2c4.4,0,8.2,3.1,9.6,7.9c2.5,8.5-3.8,18.2-15.1,23.1C16.2,31,16.1,31,16,31z M10.2,1.5
	c-3.7,0-7,2.7-8.2,6.8c-2.3,7.6,3.7,16.6,14,21.1c10.2-4.5,16.2-13.5,14-21.1c-1.2-4.1-4.4-6.8-8.2-6.8c-1.9,0-3.8,0.7-5.3,2
	c-0.3,0.2-0.7,0.2-1,0C14,2.2,12.2,1.5,10.2,1.5z"/>
</svg>
