<?xml version="1.0" encoding="utf-8"?>
<!-- Generator: Adobe Illustrator 19.2.1, SVG Export Plug-In . SVG Version: 6.00 Build 0)  -->
<svg version="1.1" id="Layer_1" xmlns="http://www.w3.org/2000/svg" xmlns:xlink="http://www.w3.org/1999/xlink" x="0px" y="0px"
	 viewBox="0 0 128 133" style="enable-background:new 0 0 128 133;" xml:space="preserve">
<style type="text/css">
	.st0{fill:#FFFFFF;}
</style>
<image style="overflow:visible;enable-background:new    ;" width="128" height="133" xlink:href="splat.png" >
</image>
<path id="Shape_152_copy_16" class="st0" d="M64,77c-0.1,0-0.2,0-0.3-0.1c-11.3-4.8-17.7-14.5-15.1-23c1.4-4.8,5.2-7.9,9.6-7.9
	c2.1,0,4.1,0.7,5.8,2c1.7-1.3,3.7-1.9,5.8-2c4.4,0,8.2,3.1,9.6,7.9c2.5,8.5-3.8,18.2-15.1,23.1C64.2,77,64.1,77,64,77z M58.2,47.5
	c-3.7,0-7,2.7-8.2,6.8c-2.3,7.6,3.7,16.6,14,21.1c10.2-4.5,16.2-13.5,14-21.1c-1.2-4.1-4.4-6.8-8.2-6.8c-1.9,0-3.8,0.7-5.3,2
	c-0.3,0.2-0.7,0.2-1,0C62,48.2,60.2,47.5,58.2,47.5z"/>
<g>
	<path class="st0" d="M38.1,91.2c0,3.2-2,5-4.4,5c-2.5,0-4.2-1.9-4.2-4.8c0-3,1.9-5,4.4-5C36.4,86.5,38.1,88.4,38.1,91.2z
		 M30.8,91.4c0,2,1.1,3.8,3,3.8c1.9,0,3-1.8,3-3.9c0-1.9-1-3.8-3-3.8C31.8,87.5,30.8,89.3,30.8,91.4z"/>
	<path class="st0" d="M44.4,89.3v1h-2.1v5.8h-1.2v-5.8h-2.1v-1H44.4z"/>
	<path class="st0" d="M46.7,89.3V92h3.2v-2.7h1.2v6.8h-1.2V93h-3.2v3.1h-1.2v-6.8H46.7z"/>
	<path class="st0" d="M59.2,92.6c0,2.5-1.7,3.6-3.4,3.6c-1.8,0-3.3-1.3-3.3-3.5c0-2.3,1.5-3.6,3.4-3.6
		C57.9,89.1,59.2,90.5,59.2,92.6z M53.9,92.7c0,1.5,0.9,2.6,2.1,2.6c1.2,0,2.1-1.1,2.1-2.6c0-1.1-0.6-2.6-2-2.6
		C54.5,90.1,53.9,91.4,53.9,92.7z"/>
	<path class="st0" d="M62,89.3v5.8h2.4v-5.8h1.2v5.8h2.4v-5.8h1.2v6.8h-8.4v-6.8H62z"/>
	<path class="st0" d="M71.8,92.9c0,1.7,1.1,2.4,2.3,2.4c0.9,0,1.4-0.2,1.9-0.4l0.2,0.9C75.8,96,75,96.2,74,96.2
		c-2.1,0-3.3-1.4-3.3-3.4c0-2,1.2-3.7,3.2-3.7c2.2,0,2.8,1.9,2.8,3.2c0,0.3,0,0.4,0,0.6H71.8z M75.4,92c0-0.8-0.3-2-1.7-2
		c-1.2,0-1.8,1.1-1.9,2H75.4z"/>
	<path class="st0" d="M79.3,89.3V92h3.2v-2.7h1.2v6.8h-1.2V93h-3.2v3.1h-1.2v-6.8H79.3z"/>
	<path class="st0" d="M86.9,89.3v2.9c0,1.1,0,1.8-0.1,2.7l0,0c0.4-0.8,0.6-1.3,1.1-2.1l2.1-3.5h1.4v6.8h-1.2v-2.9
		c0-1.1,0-1.7,0.1-2.8h0c-0.4,0.9-0.7,1.4-1.1,2.1c-0.6,1.1-1.4,2.4-2.1,3.5h-1.4v-6.8H86.9z"/>
	<path class="st0" d="M98.5,96.1h-1.2v-2.8h-0.9c-0.5,0-0.9,0.1-1.1,0.4c-0.5,0.4-0.7,1.2-1,1.9c-0.1,0.2-0.2,0.4-0.3,0.6h-1.3
		c0.2-0.2,0.3-0.5,0.4-0.8c0.3-0.7,0.5-1.5,1.1-2c0.2-0.2,0.5-0.3,0.8-0.4v0c-0.9-0.1-1.8-0.6-1.8-1.7c0-0.7,0.4-1.2,0.9-1.5
		c0.6-0.3,1.4-0.5,2.3-0.5c0.8,0,1.6,0.1,2.2,0.1V96.1z M97.3,90.1c-0.3,0-0.6-0.1-1-0.1c-0.8,0-1.8,0.2-1.8,1.2
		c0,0.9,1.1,1.2,1.8,1.2c0.5,0,0.8,0,1.1,0V90.1z"/>
</g>
</svg>
